{"glyphs":{"0":{"ha":629,"x_min":35,"x_max":593,"o":"m 314 888 q 423 866 372 888 q 511 806 474 844 q 571 717 549 768 q 593 608 593 667 l 593 279 q 571 170 593 221 q 511 82 549 119 q 423 22 474 44 q 314 0 372 0 q 205 22 256 0 q 116 82 154 44 q 56 170 78 119 q 35 279 35 221 l 35 608 q 56 717 35 667 q 116 806 78 768 q 205 866 154 844 q 314 888 256 888 m 408 608 q 381 676 408 649 q 314 704 354 704 q 246 676 274 704 q 218 608 218 649 l 218 279 q 246 211 218 239 q 314 183 274 183 q 381 211 354 183 q 408 279 408 239 l 408 608 z "},"1":{"ha":638,"x_min":31,"x_max":618,"o":"m 403 864 q 425 826 419 847 q 431 785 431 806 l 431 185 l 525 185 q 591 158 564 185 q 618 92 618 131 q 591 27 618 54 q 525 0 564 0 l 150 0 q 85 27 111 0 q 58 92 58 54 q 85 158 58 131 q 150 185 111 185 l 246 185 l 246 576 l 189 519 q 124 492 163 492 q 58 519 86 492 q 31 583 31 546 q 58 649 31 621 l 272 864 q 338 889 301 889 q 403 864 374 889 z "},"2":{"ha":633,"x_min":33,"x_max":599,"o":"m 508 185 q 572 158 546 185 q 599 92 599 131 q 572 27 599 54 q 508 0 546 0 l 132 0 q 70 24 96 0 q 42 83 44 47 q 57 154 33 119 l 399 646 l 399 668 q 361 703 399 703 l 151 703 q 88 733 114 704 q 63 796 63 761 q 88 862 63 836 q 151 888 114 888 l 361 888 q 451 871 410 888 q 521 825 492 854 q 567 756 550 796 q 583 668 583 715 q 579 610 585 642 q 571 574 574 579 l 492 458 l 301 185 l 508 185 l 508 185 z "},"3":{"ha":626,"x_min":40,"x_max":593,"o":"m 593 622 q 576 525 593 569 q 528 444 558 481 q 576 365 558 410 q 593 269 593 319 q 572 165 593 214 q 515 79 551 115 q 431 22 479 43 q 326 0 382 0 l 132 0 q 67 27 93 0 q 40 92 40 54 q 67 158 40 132 q 132 185 93 185 l 254 185 l 326 185 q 386 209 361 185 q 411 269 411 233 q 386 330 411 306 q 326 354 361 354 l 254 354 l 188 354 q 122 381 149 354 q 96 444 96 407 q 122 509 96 482 q 188 536 149 536 l 254 536 l 326 536 q 386 561 361 536 q 411 622 411 586 q 386 681 411 657 q 326 706 361 706 l 254 706 l 132 706 q 67 733 93 706 q 40 799 40 760 q 67 863 40 836 q 132 890 93 890 l 326 890 q 431 869 382 890 q 515 812 479 849 q 572 726 551 775 q 593 622 593 678 z "},"4":{"ha":592,"x_min":25,"x_max":583,"o":"m 583 335 q 558 270 583 297 q 496 240 532 243 l 496 92 q 468 26 496 53 q 400 -1 440 -1 q 335 26 363 -1 q 308 92 308 53 l 308 240 l 118 240 q 52 267 79 240 q 25 335 25 294 l 25 336 l 25 793 q 52 860 25 833 q 118 886 79 886 q 186 860 158 886 q 214 793 214 833 l 214 428 l 308 428 q 337 492 310 465 q 400 518 364 518 q 467 492 440 518 q 496 428 494 465 q 558 398 532 425 q 583 335 583 371 z "},"5":{"ha":674,"x_min":43,"x_max":643,"o":"m 332 621 q 449 596 393 619 q 549 531 506 572 q 617 433 592 489 q 643 311 643 376 q 619 190 643 246 q 552 91 594 133 q 453 24 510 49 q 332 0 396 0 q 251 13 294 0 q 169 47 208 25 q 99 101 131 69 q 56 171 68 132 q 50 217 47 193 q 64 260 53 240 q 95 292 75 279 q 142 304 115 304 q 206 276 178 304 q 233 249 222 264 q 256 219 243 233 q 285 197 268 206 q 332 188 303 188 q 420 223 385 188 q 456 311 456 258 q 420 398 456 363 q 332 433 385 433 l 138 433 q 72 460 101 433 q 43 526 43 488 l 43 793 q 71 860 43 833 q 138 888 99 888 l 496 888 q 563 860 536 888 q 590 793 590 833 q 563 727 590 754 q 496 700 536 700 l 231 700 l 231 621 l 332 621 l 332 621 z "},"6":{"ha":622,"x_min":35,"x_max":593,"o":"m 44 208 q 38 242 40 225 q 35 279 35 260 l 35 613 q 59 709 39 661 q 112 796 79 757 q 190 860 144 835 q 289 888 235 885 l 439 888 q 503 861 476 888 q 531 796 531 835 q 503 731 531 758 q 439 704 476 704 l 315 704 l 314 704 q 247 677 274 704 q 218 613 219 650 l 218 542 q 265 553 242 549 q 314 558 289 558 q 423 536 372 558 q 511 476 474 514 q 571 388 549 439 q 593 279 593 338 q 571 170 593 221 q 511 82 549 119 q 423 22 474 44 q 314 0 372 0 q 222 16 265 0 q 142 60 178 32 q 81 126 107 88 q 44 208 56 164 m 314 374 q 246 347 274 374 q 218 279 218 319 q 246 211 218 239 q 314 183 274 183 q 382 211 354 183 q 410 279 410 239 q 382 347 410 319 q 314 374 354 374 z "},"7":{"ha":626,"x_min":38,"x_max":600,"o":"m 510 886 q 560 870 539 885 q 590 834 581 856 q 599 785 600 813 q 586 733 599 758 l 211 42 q 154 2 192 10 q 85 15 117 -6 q 45 73 53 36 q 58 142 38 110 l 361 703 l 150 703 q 85 729 111 703 q 58 794 58 756 q 85 859 58 832 q 150 886 111 886 l 510 886 l 510 886 z "},"8":{"ha":624,"x_min":32,"x_max":592,"o":"m 514 471 q 571 385 550 435 q 592 278 592 335 q 569 169 592 219 q 509 81 547 118 q 420 21 471 43 q 311 -1 369 -1 q 202 21 253 -1 q 114 81 151 43 q 54 169 76 118 q 32 278 32 219 q 53 385 32 335 q 110 471 74 435 q 68 545 83 504 q 53 631 53 586 q 73 731 53 685 q 128 813 93 778 q 211 869 164 849 q 311 889 258 889 q 412 869 365 889 q 494 813 458 849 q 549 731 529 778 q 569 631 569 685 q 555 545 569 586 q 514 471 540 504 m 311 707 q 258 685 281 707 q 236 631 236 663 q 240 608 236 621 q 254 585 244 596 q 278 566 264 574 q 311 558 292 558 q 364 577 342 558 q 386 631 386 596 q 365 685 386 663 q 311 707 343 707 m 311 182 q 380 210 351 182 q 408 278 408 238 q 401 311 408 294 q 382 342 394 328 q 351 365 369 356 q 311 374 333 374 q 245 346 275 374 q 215 278 215 318 q 243 210 215 238 q 311 182 271 182 z "},"9":{"ha":622,"x_min":29,"x_max":588,"o":"m 578 679 q 585 645 582 663 q 588 608 588 628 l 588 275 q 563 178 583 226 q 510 92 543 131 q 433 28 478 53 q 333 0 388 3 l 183 0 q 119 26 146 0 q 92 92 92 53 q 119 156 92 129 q 183 183 146 183 l 307 183 l 308 183 q 376 210 349 183 q 404 275 403 238 l 404 346 q 357 334 381 339 q 308 329 333 329 q 199 351 250 329 q 111 411 149 374 q 51 499 74 449 q 29 608 29 550 q 51 717 29 667 q 111 806 74 768 q 199 865 149 843 q 308 888 250 888 q 401 872 357 888 q 480 828 444 856 q 541 762 515 800 q 578 679 567 724 m 308 514 q 376 541 349 514 q 404 608 404 568 q 376 676 404 649 q 308 704 349 704 q 240 676 268 704 q 213 608 213 649 q 240 541 213 568 q 308 514 268 514 z "},"b":{"ha":725,"x_min":38,"x_max":711,"o":"m 128 886 q 163 880 146 888 q 192 860 179 872 q 213 830 206 847 q 219 794 219 813 l 219 635 q 320 667 268 660 q 424 667 372 675 q 524 637 475 660 q 614 575 572 614 q 687 467 663 525 q 711 336 711 410 q 684 206 711 267 q 611 99 657 144 q 504 26 565 53 q 375 0 443 0 q 247 27 308 0 q 140 100 186 54 q 65 207 93 146 q 38 336 38 268 l 38 801 q 46 834 38 818 q 67 862 54 850 q 95 881 79 874 q 128 886 111 888 m 219 336 q 232 276 219 304 q 266 226 244 247 q 315 193 288 206 q 375 181 343 181 q 434 193 406 181 q 484 226 463 206 q 518 276 506 247 q 531 336 531 304 q 518 397 531 368 q 484 446 506 425 q 434 479 463 467 q 375 492 406 492 q 315 478 343 492 q 266 444 288 465 q 232 394 244 422 q 219 336 219 365 z "},"e":{"ha":726,"x_min":29,"x_max":703,"o":"m 365 672 q 493 644 432 672 q 601 570 554 617 q 675 463 647 524 q 703 336 703 403 q 676 272 703 300 q 608 246 649 244 l 239 246 q 365 181 285 181 q 403 185 388 181 q 430 194 418 189 q 453 204 442 200 q 481 208 465 208 q 531 192 510 207 q 563 153 553 176 q 570 104 574 131 q 546 56 567 78 q 463 13 508 25 q 365 0 417 1 q 238 24 299 -3 q 130 98 176 51 q 56 207 83 144 q 29 336 29 269 q 56 463 29 401 q 129 570 83 524 q 236 644 175 617 q 365 672 297 672 m 492 428 q 436 474 468 457 q 365 492 404 492 q 294 474 325 492 q 239 428 263 457 l 492 428 z "},"f":{"ha":514,"x_min":14,"x_max":500,"o":"m 401 888 q 469 865 442 888 q 500 799 497 843 q 474 738 500 763 q 410 710 449 713 q 364 689 381 708 q 347 643 347 669 l 347 438 q 408 409 383 435 q 432 346 432 383 q 408 283 432 308 q 347 256 385 258 l 347 46 q 334 -32 347 6 q 297 -99 321 -69 q 241 -153 274 -129 q 167 -189 208 -176 q 115 -197 142 -197 q 67 -185 89 -196 q 31 -156 46 -175 q 14 -106 15 -136 q 40 -44 14 -69 q 101 -17 65 -18 q 148 3 129 -17 q 167 49 167 24 l 167 256 q 107 281 129 256 q 82 346 85 306 q 106 408 82 382 q 167 438 129 433 l 167 644 q 185 735 167 692 q 235 813 203 779 q 310 867 267 847 q 401 888 353 888 z "},"h":{"ha":735,"x_min":43,"x_max":717,"o":"m 133 882 q 195 857 169 882 q 224 792 221 832 l 224 632 q 299 661 256 653 q 381 669 342 669 q 510 644 449 669 q 617 575 571 619 q 690 471 663 531 q 717 343 717 411 l 717 89 q 691 25 717 51 q 626 -3 665 -1 q 565 22 590 -3 q 535 83 540 46 l 535 333 q 523 392 535 364 q 490 442 511 421 q 442 476 469 464 q 381 489 414 489 q 274 446 318 489 q 224 340 231 403 l 224 89 q 198 25 224 51 q 133 -3 172 -1 q 74 22 99 -3 q 43 83 50 46 l 43 797 q 70 857 46 832 q 133 882 94 882 z "},"g":{"ha":740,"x_min":35,"x_max":706,"o":"m 371 672 q 501 646 440 672 q 608 574 563 619 q 680 467 654 528 q 706 336 706 406 q 665 169 706 242 q 706 32 706 115 q 688 -60 706 -17 q 638 -137 669 -104 q 564 -191 607 -171 q 471 -214 521 -211 l 118 -214 q 59 -187 83 -214 q 35 -124 35 -160 q 60 -60 35 -87 q 124 -32 86 -33 l 461 -32 q 507 -13 489 -32 q 528 33 525 6 l 528 35 q 465 10 500 19 q 371 0 429 0 q 235 25 297 0 q 129 94 174 50 q 60 201 85 139 q 35 336 35 263 q 63 465 35 404 q 137 572 90 526 q 244 645 183 618 q 371 672 304 672 m 371 492 q 313 478 340 492 q 263 444 285 465 q 228 394 242 422 q 215 336 215 367 q 227 277 215 306 q 260 227 239 249 q 309 192 281 206 q 371 179 338 179 q 433 192 404 179 q 483 226 463 204 q 516 276 504 249 q 528 336 528 304 q 515 397 528 368 q 480 446 501 425 q 430 479 458 467 q 371 492 401 492 z "},"i":{"ha":261,"x_min":40,"x_max":219,"o":"m 132 881 q 194 853 168 881 q 219 790 219 826 q 194 727 219 754 q 132 700 168 700 q 66 726 92 701 q 40 794 40 750 q 69 856 42 831 q 132 881 96 881 m 132 668 q 192 642 168 668 q 219 578 217 615 l 219 86 q 196 24 219 49 q 132 -4 172 -1 q 71 18 96 -4 q 40 81 46 40 l 40 583 q 69 643 43 619 q 132 668 96 667 z "},"j":{"ha":471,"x_min":8,"x_max":438,"o":"m 346 885 q 410 859 383 885 q 436 793 436 833 q 430 760 438 776 q 410 731 422 743 q 381 710 397 718 q 346 703 364 703 q 285 727 310 703 q 254 789 260 751 q 281 858 254 833 q 346 885 307 882 m 346 671 q 408 647 383 671 q 436 582 433 622 l 436 325 q 408 199 435 258 q 335 97 381 140 q 230 26 290 53 q 101 -1 169 0 q 37 25 63 -1 q 8 89 11 51 q 35 152 8 126 q 100 179 61 178 q 160 191 132 179 q 208 224 188 203 q 242 273 229 244 q 254 335 254 301 l 254 588 q 281 647 257 624 q 346 671 306 671 z "},"k":{"ha":621,"x_min":42,"x_max":599,"o":"m 571 158 q 599 92 599 131 q 571 26 599 54 q 506 -1 543 1 q 439 26 468 -3 l 229 235 l 229 93 q 201 28 229 57 q 136 0 174 0 q 71 27 100 0 q 42 93 42 54 l 42 794 q 69 859 42 831 q 136 888 97 888 q 202 860 175 888 q 229 794 229 833 l 229 446 l 439 656 q 504 683 467 683 q 571 656 542 682 q 599 590 599 628 q 571 524 599 551 l 388 340 l 571 158 z "},"l":{"ha":389,"x_min":38,"x_max":376,"o":"m 129 883 q 192 857 167 883 q 221 792 218 831 l 221 243 q 239 196 221 215 q 285 176 257 176 q 348 151 321 176 q 376 89 375 126 q 353 30 376 56 q 294 -1 331 4 l 275 -1 q 183 19 226 -1 q 108 72 140 39 q 56 150 75 106 q 38 243 38 194 l 38 797 q 67 857 42 832 q 129 883 92 882 z "},"m":{"ha":886,"x_min":40,"x_max":846,"o":"m 289 672 q 370 659 331 672 q 443 618 410 646 q 599 672 510 672 q 692 653 647 672 q 772 603 738 635 q 826 526 806 571 q 846 432 846 482 l 846 83 q 818 25 846 50 q 754 0 790 0 q 691 27 718 0 q 664 90 664 54 l 664 428 q 645 472 664 454 q 599 490 626 490 q 555 474 575 490 q 535 428 535 458 l 535 90 q 508 26 535 53 q 443 0 481 0 q 381 24 408 0 q 353 83 353 49 l 353 428 q 332 473 351 456 q 289 490 313 490 q 244 472 263 490 q 224 426 225 454 l 224 82 q 195 24 221 49 q 133 0 169 0 q 97 7 114 0 q 68 26 81 14 q 48 56 56 39 q 42 90 40 72 l 42 432 q 61 524 42 481 q 114 601 81 568 q 192 653 147 633 q 289 672 238 672 z "},"n":{"ha":746,"x_min":36,"x_max":710,"o":"m 374 676 q 501 652 440 676 q 608 584 563 628 q 682 481 654 540 q 710 351 710 421 l 710 94 q 684 32 710 58 q 621 4 658 6 q 556 28 583 4 q 529 90 529 53 l 529 340 q 517 401 529 372 q 484 450 506 429 q 434 483 463 471 q 372 496 406 496 q 314 484 342 496 q 265 453 286 472 q 232 406 244 433 q 219 347 219 378 l 219 94 q 192 31 219 58 q 128 4 164 4 q 64 29 92 4 q 36 90 36 54 l 36 340 q 63 471 38 410 q 134 578 89 532 q 240 650 179 624 q 374 676 301 676 z "},"o":{"ha":731,"x_min":29,"x_max":701,"o":"m 365 660 q 494 633 433 660 q 601 561 556 607 q 674 454 647 515 q 701 322 701 393 q 675 192 701 253 q 603 86 649 132 q 497 14 558 40 q 365 -12 436 -12 q 235 13 296 -12 q 128 83 174 38 q 56 189 82 128 q 29 322 29 250 q 55 452 29 392 q 126 558 81 513 q 233 630 171 603 q 365 660 294 657 m 365 478 q 306 466 333 478 q 256 433 278 454 q 222 384 235 413 q 210 322 210 356 q 222 262 210 290 q 256 212 235 233 q 306 178 278 190 q 365 165 333 165 q 426 178 397 165 q 475 212 454 190 q 508 262 496 233 q 521 322 521 290 q 475 431 518 386 q 365 478 432 475 z "},"p":{"ha":725,"x_min":38,"x_max":711,"o":"m 375 671 q 504 644 443 671 q 611 572 565 618 q 684 465 657 526 q 711 335 711 404 q 685 204 711 265 q 615 97 660 143 q 508 25 569 51 q 375 -1 446 -1 q 219 33 289 -1 l 219 -126 q 193 -189 219 -162 q 128 -215 167 -215 q 66 -191 93 -215 q 38 -131 39 -167 l 38 335 q 65 464 38 403 q 138 571 92 525 q 244 644 183 617 q 375 671 306 671 m 219 335 q 232 272 219 300 q 266 222 244 243 q 316 190 288 201 q 375 178 344 178 q 436 190 408 178 q 485 224 464 203 q 517 274 506 246 q 529 335 529 303 q 517 395 529 367 q 483 444 504 424 q 435 477 463 465 q 375 489 407 489 q 313 476 342 489 q 264 443 285 464 q 231 394 243 422 q 219 335 219 367 z "},"q":{"ha":725,"x_min":14,"x_max":688,"o":"m 350 671 q 480 644 418 671 q 588 571 542 617 q 660 464 633 525 q 688 335 688 403 l 688 -131 q 659 -191 686 -167 q 597 -215 632 -215 q 532 -189 558 -215 q 506 -126 506 -162 l 506 33 q 350 -1 436 -1 q 217 25 279 -1 q 110 97 156 51 q 40 204 65 143 q 14 335 14 265 q 40 465 14 404 q 113 572 67 526 q 219 644 158 618 q 350 671 281 671 m 506 335 q 494 394 506 367 q 461 443 482 422 q 412 476 440 464 q 350 489 383 489 q 290 477 318 489 q 242 444 263 465 q 208 395 221 424 q 196 335 196 367 q 208 274 196 303 q 240 224 219 246 q 289 190 261 203 q 350 178 317 178 q 409 190 381 178 q 459 222 438 201 q 493 272 481 243 q 506 335 506 300 z "},"r":{"ha":468,"x_min":32,"x_max":460,"o":"m 122 -1 q 60 23 85 -1 q 32 88 35 47 l 32 344 q 60 470 33 411 q 133 573 88 529 q 238 642 178 617 q 367 671 299 668 q 431 644 406 671 q 460 581 457 618 q 433 517 460 543 q 368 490 407 492 q 308 478 336 490 q 260 446 281 467 q 226 397 239 425 q 214 335 214 368 l 214 82 q 187 22 211 46 q 122 -1 163 -1 z "},"s":{"ha":640,"x_min":33,"x_max":607,"o":"m 488 675 q 550 647 525 675 q 575 586 575 618 q 548 523 575 550 q 488 496 521 496 l 249 496 q 223 486 232 496 q 214 463 214 476 q 223 438 214 449 q 249 428 232 428 l 406 428 q 485 410 449 428 q 549 363 522 393 q 592 295 576 333 q 607 215 607 257 q 590 128 607 168 q 544 60 574 89 q 475 16 515 32 q 386 0 435 0 l 151 0 q 90 25 115 0 q 65 89 65 50 q 90 152 65 124 q 151 182 115 181 l 386 182 q 424 215 424 182 q 386 247 424 247 l 233 247 q 155 265 192 247 q 91 311 118 282 q 49 379 64 340 q 33 463 33 418 q 49 542 33 504 q 93 610 65 581 q 158 656 121 639 q 240 675 196 674 l 488 675 z "},"t":{"ha":665,"x_min":38,"x_max":649,"o":"m 132 888 q 197 860 171 888 q 226 793 224 833 l 226 688 l 493 688 q 558 660 533 688 q 583 594 583 632 q 556 530 583 558 q 493 501 528 501 l 226 501 l 226 343 q 238 283 226 311 q 271 232 250 254 q 320 197 292 210 q 382 185 349 185 q 444 194 418 185 q 489 224 469 204 q 553 249 518 249 q 619 222 589 250 q 640 194 633 210 q 648 160 647 178 q 643 126 649 143 q 625 97 638 110 q 518 25 576 50 q 393 0 460 0 q 257 24 321 0 q 144 94 193 49 q 67 202 96 139 q 38 343 39 265 l 38 800 q 66 863 38 838 q 132 888 94 888 z "},"u":{"ha":747,"x_min":36,"x_max":711,"o":"m 126 674 q 190 647 163 674 q 218 581 218 619 l 218 336 q 231 276 218 304 q 264 226 243 247 q 313 193 285 206 q 374 181 342 181 q 432 192 404 181 q 481 222 460 203 q 515 269 503 242 q 528 329 528 297 l 528 582 q 542 629 528 610 q 548 638 544 633 q 556 646 551 642 q 618 674 581 674 q 683 646 656 674 q 711 586 710 619 l 711 336 q 685 206 711 267 q 613 99 658 144 q 506 26 567 53 q 374 0 444 0 q 246 23 307 -3 q 138 94 185 49 q 64 199 92 139 q 36 326 36 260 l 36 582 q 62 645 36 618 q 126 674 88 672 z "},"w":{"ha":886,"x_min":40,"x_max":846,"o":"m 289 0 q 192 19 238 0 q 114 72 147 39 q 61 148 81 104 q 42 240 42 192 l 42 582 q 48 617 40 600 q 68 646 56 633 q 97 665 81 658 q 133 672 114 672 q 195 648 169 672 q 224 590 221 624 l 224 246 q 244 200 225 218 q 289 182 263 182 q 332 199 313 182 q 353 244 351 217 l 353 589 q 381 648 353 624 q 443 672 408 672 q 508 646 481 672 q 535 582 535 619 l 535 244 q 555 198 535 214 q 599 182 575 182 q 645 200 626 182 q 664 244 664 218 l 664 582 q 691 645 664 618 q 754 672 718 672 q 818 647 790 672 q 846 589 846 622 l 846 240 q 826 146 846 190 q 772 69 806 101 q 692 19 738 38 q 599 0 647 0 q 443 54 510 0 q 370 13 410 26 q 289 0 331 0 z "},"v":{"ha":628,"x_min":24,"x_max":604,"o":"m 538 668 q 589 619 574 653 q 589 549 604 585 l 401 58 q 372 22 394 43 q 317 0 349 0 q 264 13 289 0 q 228 58 239 26 l 39 549 q 39 619 24 585 q 90 668 54 653 q 161 667 126 682 q 211 615 196 651 l 314 349 l 417 615 q 467 667 432 651 q 538 668 503 682 z "},"x":{"ha":751,"x_min":39,"x_max":714,"o":"m 561 646 q 623 672 588 672 q 686 644 658 671 q 711 582 711 619 q 686 518 711 544 l 506 336 l 686 154 q 713 91 711 129 q 686 25 714 53 q 623 0 661 0 q 557 29 585 0 l 376 207 l 196 25 q 133 0 171 3 q 68 25 96 -3 q 41 87 43 50 q 65 151 39 124 l 250 336 l 65 521 q 42 582 39 547 q 68 644 44 617 q 133 672 99 675 q 196 644 168 669 l 376 464 l 561 646 z "},"y":{"ha":735,"x_min":17,"x_max":692,"o":"m 107 674 q 170 650 142 674 q 199 589 199 626 l 199 338 q 210 278 199 306 q 243 229 222 250 q 292 196 264 208 q 354 183 321 183 q 412 194 383 183 q 462 225 440 206 q 497 272 483 244 q 510 331 510 299 l 510 585 q 535 647 510 621 q 600 674 561 674 q 664 649 636 674 q 692 589 692 625 l 692 -125 q 664 -186 692 -161 q 600 -211 636 -211 q 538 -186 565 -211 q 510 -121 510 -161 l 510 39 q 437 10 478 19 q 354 1 396 1 q 225 28 286 1 q 117 100 164 54 q 44 209 71 146 q 17 347 17 272 l 17 585 q 42 647 17 621 q 107 674 68 674 z "},"z":{"ha":757,"x_min":40,"x_max":717,"o":"m 628 672 q 690 646 664 672 q 717 583 717 617 q 690 519 717 546 q 676 506 683 513 q 663 492 669 499 q 508 337 585 414 q 351 182 431 260 l 628 182 q 690 154 663 181 q 717 89 717 125 q 690 26 717 56 q 628 0 661 0 l 624 0 l 171 0 l 136 0 l 132 0 q 69 26 96 0 q 43 89 42 54 q 68 151 40 126 l 407 492 l 136 492 l 132 492 q 69 519 94 494 q 43 583 40 546 q 69 646 42 618 q 132 672 94 672 l 628 672 z "},"c":{"ha":656,"x_min":28,"x_max":625,"o":"m 365 672 q 601 575 504 672 q 623 513 625 549 q 596 453 621 476 q 532 428 571 429 q 468 453 493 426 q 365 492 425 492 q 305 478 333 492 q 255 444 276 465 q 221 394 233 422 q 208 336 208 367 q 221 276 208 304 q 256 226 233 247 q 306 192 278 204 q 365 181 333 179 q 468 218 426 181 q 532 246 493 246 q 596 218 571 246 q 615 192 608 207 q 623 160 622 176 q 618 127 624 143 q 601 99 613 111 q 494 25 553 50 q 365 0 436 0 q 235 27 296 0 q 128 100 174 54 q 55 207 82 146 q 28 336 28 268 q 55 464 28 403 q 128 571 82 525 q 236 644 175 617 q 365 672 297 672 z "},"a":{"ha":739,"x_min":29,"x_max":703,"o":"m 406 671 q 523 635 468 664 q 617 560 578 606 q 680 458 657 515 q 703 336 703 400 l 703 90 q 675 26 703 53 q 613 0 647 0 q 535 44 564 0 q 522 38 528 42 q 511 32 517 35 q 443 8 478 17 q 367 0 407 0 q 181 56 263 0 q 58 201 99 113 q 37 267 44 233 q 29 336 29 300 q 37 406 29 372 q 58 471 44 439 q 181 617 99 561 q 367 672 263 672 q 387 672 378 672 q 406 671 396 672 m 365 181 q 426 192 397 181 q 475 225 454 204 q 508 274 496 246 q 521 336 521 303 q 508 395 521 367 q 474 445 496 424 q 424 479 453 467 q 365 492 396 492 q 307 479 335 492 q 258 445 279 467 q 224 395 236 424 q 211 336 211 367 q 224 276 211 304 q 259 226 238 247 q 308 193 281 206 q 365 181 336 181 z "},"d":{"ha":725,"x_min":14,"x_max":688,"o":"m 597 885 q 660 859 633 885 q 688 793 688 833 l 688 336 q 660 207 688 268 q 587 100 633 146 q 479 27 540 54 q 351 0 418 0 q 224 26 285 0 q 116 99 163 53 q 42 206 69 144 q 14 336 14 267 q 41 465 14 404 q 115 572 68 526 q 222 645 161 618 q 351 672 283 672 q 506 635 435 672 l 506 794 q 513 829 506 813 q 533 858 521 846 q 563 878 546 871 q 597 885 579 885 m 351 492 q 291 479 319 492 q 241 445 263 467 q 207 395 219 424 q 194 336 194 367 q 207 276 194 304 q 241 226 219 247 q 291 193 263 206 q 351 181 319 181 q 410 193 382 181 q 459 227 438 206 q 493 276 481 249 q 506 336 506 304 q 493 398 506 369 q 459 447 481 426 q 410 480 438 468 q 351 492 382 492 z "},"!":{"ha":269,"x_min":40,"x_max":228,"o":"m 228 93 q 200 28 228 56 q 136 0 172 0 q 68 28 96 0 q 40 93 40 56 q 68 160 40 132 q 136 188 96 188 q 200 160 172 188 q 228 93 228 132 m 136 888 q 200 860 172 888 q 228 793 228 833 l 228 325 q 200 258 228 285 q 136 231 172 231 q 68 258 96 231 q 40 325 40 285 l 40 793 q 68 860 40 833 q 136 888 96 888 z "},"\"":{"ha":479,"x_min":40,"x_max":439,"o":"m 135 888 q 201 860 175 888 q 228 794 228 833 l 228 621 q 201 555 228 582 q 135 528 175 528 q 68 555 96 528 q 40 621 40 582 l 40 794 q 68 860 40 833 q 135 888 96 888 m 346 888 q 413 860 386 888 q 439 794 439 833 l 439 621 q 413 555 439 582 q 346 528 386 528 q 279 555 307 528 q 251 621 251 582 l 251 794 q 279 860 251 833 q 346 888 307 888 z "},"$":{"ha":674,"x_min":24,"x_max":650,"o":"m 446 535 q 526 517 489 535 q 592 469 564 499 q 635 400 619 439 q 650 319 650 361 q 633 233 650 274 q 587 164 617 193 q 516 118 557 135 q 426 101 475 101 l 426 92 q 399 26 426 53 q 333 0 372 0 q 267 26 294 0 q 240 92 240 53 l 240 101 l 135 101 q 70 128 96 101 q 44 194 44 154 q 70 256 44 228 q 135 286 96 283 l 240 286 l 240 351 l 225 351 q 147 369 183 351 q 83 416 110 386 q 40 485 56 446 q 24 571 24 525 q 42 651 24 613 q 92 718 61 689 q 159 765 122 747 q 232 786 196 783 l 240 786 l 240 796 q 267 861 240 835 q 333 888 294 888 q 399 861 372 888 q 426 796 426 835 l 426 786 l 519 786 q 601 756 572 786 q 629 693 629 726 q 602 630 629 657 q 539 603 575 603 l 426 603 l 426 535 l 446 535 m 206 571 q 215 545 206 556 q 240 535 224 535 l 240 603 q 215 593 224 603 q 206 571 206 583 m 426 286 q 463 319 463 286 q 426 351 463 351 l 426 286 z "},"%":{"ha":551,"x_min":0,"x_max":522,"o":"m 400 885 q 456 839 438 874 q 463 768 474 804 l 240 67 q 194 13 229 31 q 122 6 158 -6 q 68 51 86 17 q 61 124 50 85 l 283 824 q 328 879 294 861 q 400 885 363 897 m 522 94 q 495 28 522 56 q 428 0 468 0 q 362 28 389 0 q 335 94 335 56 q 362 161 335 133 q 428 189 389 189 q 495 161 468 189 q 522 94 522 133 m 0 796 q 26 862 0 835 q 93 889 53 889 q 160 862 132 889 q 188 796 188 835 q 160 729 188 756 q 93 703 132 703 q 26 729 53 703 q 0 796 0 756 z "},"&":{"ha":913,"x_min":114,"x_max":886,"o":"m 856 149 q 884 89 882 125 q 863 26 886 53 q 802 -3 839 -1 q 740 19 765 -4 l 611 132 l 557 68 q 476 18 521 36 q 378 0 431 0 q 267 24 317 0 q 183 86 217 47 q 131 174 149 125 q 115 276 114 224 q 139 378 117 328 q 207 471 161 429 q 154 548 174 504 q 135 643 135 592 q 154 738 135 693 q 206 815 174 782 q 283 867 239 849 q 378 886 328 886 q 515 843 457 886 q 599 736 572 800 q 615 601 625 672 q 550 471 606 529 q 533 457 542 464 q 518 443 525 450 l 594 375 l 667 456 q 726 485 690 483 q 788 463 761 486 q 817 403 815 439 q 794 340 818 368 l 725 261 l 856 149 m 378 714 q 328 693 349 714 q 308 643 308 672 q 327 597 308 619 q 378 574 346 574 q 428 594 407 574 q 449 643 449 614 q 428 693 449 672 q 378 714 407 714 m 481 244 l 356 356 q 306 323 325 347 q 286 267 286 299 q 313 202 286 229 q 378 175 339 175 q 442 201 415 175 l 481 244 z "},"'":{"ha":264,"x_min":38,"x_max":225,"o":"m 132 890 q 199 863 172 890 q 225 797 225 836 l 225 624 q 199 558 225 585 q 132 531 172 531 q 65 558 93 531 q 38 624 38 585 l 38 797 q 65 863 38 836 q 132 890 93 890 z "},"(":{"ha":524,"x_min":31,"x_max":485,"o":"m 390 0 q 458 -26 431 0 q 485 -93 485 -53 q 458 -159 485 -132 q 390 -186 431 -186 l 372 -186 q 241 -158 303 -186 q 133 -84 179 -131 q 58 24 86 -37 q 31 153 31 86 l 31 549 q 58 678 31 617 q 133 786 86 739 q 241 861 179 833 q 372 889 303 889 l 390 889 q 458 862 431 889 q 485 796 485 835 q 458 729 485 756 q 390 703 431 703 q 325 683 356 703 q 271 634 294 664 q 233 567 247 604 q 219 497 219 531 l 219 172 q 233 108 219 139 q 271 52 247 76 q 325 14 294 28 q 390 0 356 0 z "},")":{"ha":524,"x_min":39,"x_max":493,"o":"m 133 0 q 199 14 168 0 q 253 52 229 28 q 290 108 276 76 q 304 172 304 139 l 304 497 q 290 567 304 531 q 253 634 276 604 q 199 683 229 664 q 133 703 168 703 q 66 729 93 703 q 39 796 39 756 q 66 862 39 835 q 133 889 93 889 l 151 889 q 282 861 219 889 q 391 786 344 833 q 465 678 438 739 q 493 549 493 617 l 493 153 q 465 24 493 86 q 391 -84 438 -37 q 282 -158 344 -131 q 151 -186 219 -186 l 133 -186 q 66 -159 93 -186 q 39 -93 39 -132 q 66 -26 39 -53 q 133 0 93 0 z "},"*":{"ha":375,"x_min":24,"x_max":351,"o":"m 324 682 q 347 651 342 671 q 340 615 351 632 q 310 593 329 597 q 274 600 290 589 l 236 622 l 236 579 q 222 545 236 560 q 188 531 207 531 q 153 545 167 531 q 139 579 139 560 l 139 622 l 101 600 q 65 593 85 589 q 35 615 46 597 q 28 651 24 632 q 50 682 33 671 l 94 710 l 50 738 q 28 768 33 749 q 35 806 24 788 q 65 826 46 822 q 101 821 85 831 l 139 797 l 139 840 q 153 875 139 861 q 188 889 167 889 q 222 875 207 889 q 236 840 236 861 l 236 797 l 274 821 q 310 826 290 831 q 340 806 329 822 q 347 768 351 788 q 324 738 342 749 l 281 710 l 324 682 l 324 682 z "},"[":{"ha":422,"x_min":43,"x_max":385,"o":"m 292 0 q 358 -26 331 0 q 385 -93 385 -53 q 358 -159 385 -132 q 292 -186 331 -186 l 136 -186 q 73 -160 97 -186 q 43 -100 49 -135 l 43 803 q 73 863 49 838 q 136 889 97 888 l 292 889 q 358 862 331 889 q 385 796 385 835 q 358 729 385 756 q 292 703 331 703 l 229 703 l 229 0 l 292 0 l 292 0 z "},"]":{"ha":422,"x_min":38,"x_max":379,"o":"m 131 0 l 193 0 l 193 703 l 131 703 q 65 729 92 703 q 38 796 38 756 q 65 862 38 835 q 131 889 92 889 l 286 889 q 349 863 325 888 q 379 803 374 838 l 379 -100 q 349 -160 374 -135 q 286 -186 325 -186 l 131 -186 q 65 -159 92 -186 q 38 -93 38 -132 q 65 -26 38 -53 q 131 0 92 0 z "},"+":{"ha":579,"x_min":0,"x_max":540,"o":"m 444 511 q 513 484 485 511 q 540 417 540 457 q 513 350 540 378 q 444 322 485 322 l 364 322 l 364 242 q 336 174 364 201 q 269 146 308 146 q 202 174 229 146 q 175 242 175 201 l 175 322 l 93 322 q 26 350 53 322 q 0 417 0 378 q 26 484 0 457 q 93 511 53 511 l 175 511 l 175 593 q 202 660 175 633 q 269 688 229 688 q 336 660 308 688 q 364 593 364 633 l 364 511 l 444 511 l 444 511 z "},",":{"ha":264,"x_min":38,"x_max":226,"o":"m 131 189 q 199 161 171 189 q 226 96 226 133 l 226 -78 q 199 -144 226 -117 q 131 -171 171 -171 q 65 -144 92 -171 q 38 -78 38 -117 l 38 96 q 65 161 38 133 q 131 189 92 189 z "},"-":{"ha":592,"x_min":0,"x_max":540,"o":"m 540 418 q 513 351 540 379 q 447 324 486 324 l 93 324 q 26 351 53 324 q 0 418 0 379 q 26 485 0 458 q 93 513 53 513 l 447 513 q 513 485 486 513 q 540 418 540 458 z "},".":{"ha":226,"x_min":0,"x_max":189,"o":"m 189 94 q 161 28 189 56 q 93 0 133 0 q 27 28 54 0 q 0 94 0 56 q 27 161 0 133 q 93 189 54 189 q 161 161 133 189 q 189 94 189 133 z "},"/":{"ha":474,"x_min":-7,"x_max":417,"o":"m 344 883 q 399 838 381 872 q 406 767 417 803 l 183 65 q 138 11 172 29 q 67 4 103 -7 q 11 49 29 15 q 4 122 -7 83 l 226 822 q 273 878 238 860 q 344 883 308 896 z "},"{":{"ha":600,"x_min":15,"x_max":561,"o":"m 467 0 q 533 -27 506 0 q 561 -92 561 -54 q 533 -159 561 -132 q 467 -186 506 -186 l 449 -186 q 319 -158 381 -186 q 210 -84 257 -131 q 137 24 164 -37 q 110 154 110 86 l 110 257 q 42 284 69 257 q 15 350 15 311 q 42 418 15 390 q 110 446 69 446 l 110 549 q 137 678 110 617 q 210 785 164 739 q 319 860 257 832 q 449 888 381 888 l 467 888 q 533 860 506 888 q 561 794 561 833 q 533 728 561 756 q 467 701 506 701 q 401 682 432 701 q 348 633 371 663 q 311 567 325 603 q 297 496 297 531 l 297 172 q 311 108 297 139 q 348 52 325 76 q 401 14 371 28 q 467 0 432 0 z "},"\\":{"ha":474,"x_min":-7,"x_max":417,"o":"m 65 883 q 137 878 101 896 q 183 822 172 860 l 406 122 q 399 49 417 83 q 343 4 381 15 q 272 11 307 -7 q 226 65 238 29 l 4 767 q 11 838 -7 803 q 65 883 29 872 z "},"|":{"ha":282,"x_min":42,"x_max":238,"o":"m 139 889 q 208 860 179 889 q 238 790 238 831 l 238 -87 q 208 -157 238 -128 q 139 -186 179 -186 q 70 -157 99 -186 q 42 -87 42 -128 l 42 790 q 70 860 42 831 q 139 889 99 889 z "},"}":{"ha":600,"x_min":39,"x_max":585,"o":"m 133 0 q 199 14 168 0 q 252 52 229 28 q 289 108 275 76 q 303 172 303 139 l 303 496 q 289 567 303 531 q 252 633 275 603 q 199 682 229 663 q 133 701 168 701 q 67 728 94 701 q 39 794 39 756 q 67 860 39 833 q 133 888 94 888 l 151 888 q 281 860 219 888 q 390 785 343 832 q 463 678 436 739 q 490 549 490 617 l 490 446 q 558 418 531 446 q 585 350 585 390 q 558 284 585 311 q 490 257 531 257 l 490 154 q 463 24 490 86 q 390 -84 436 -37 q 281 -158 343 -131 q 151 -186 219 -186 l 133 -186 q 67 -159 94 -186 q 39 -92 39 -132 q 67 -27 39 -54 q 133 0 94 0 z "},":":{"ha":256,"x_min":33,"x_max":222,"o":"m 222 94 q 194 28 222 56 q 126 0 167 0 q 60 28 88 0 q 33 94 33 56 q 60 161 33 133 q 126 189 88 189 q 194 161 167 189 q 222 94 222 133 m 222 579 q 194 513 222 540 q 126 485 167 485 q 60 513 88 485 q 33 579 33 540 q 60 646 33 618 q 126 674 88 674 q 194 646 167 674 q 222 579 222 618 z "},";":{"ha":264,"x_min":38,"x_max":226,"o":"m 226 579 q 199 513 226 540 q 131 485 171 485 q 65 513 92 485 q 38 579 38 540 q 65 646 38 618 q 131 674 92 674 q 199 646 171 674 q 226 579 226 618 m 131 189 q 65 161 92 189 q 38 96 38 133 l 38 -78 q 65 -144 38 -117 q 131 -171 92 -171 q 199 -144 171 -171 q 226 -78 226 -117 l 226 96 q 199 161 226 133 q 131 189 171 189 z "},"‘":{"ha":236,"x_min":-1,"x_max":186,"o":"m 111 863 q 147 888 125 888 q 175 876 164 888 q 186 847 186 864 l 186 621 q 159 555 186 582 q 92 528 132 528 q 44 541 65 528 q 12 575 24 554 q -1 621 0 596 q 13 669 -1 646 l 111 863 z "},"’":{"ha":235,"x_min":0,"x_max":188,"o":"m 75 553 q 39 528 61 528 q 11 540 22 528 q 0 568 0 551 l 0 794 q 27 860 0 833 q 94 888 54 888 q 142 874 121 888 q 174 840 163 861 q 187 794 186 819 q 174 746 188 769 l 75 553 z "},"“":{"ha":469,"x_min":-1,"x_max":403,"o":"m 111 863 q 147 888 125 888 q 175 876 164 888 q 186 847 186 864 l 186 621 q 159 555 186 582 q 92 528 132 528 q 44 541 65 528 q 12 575 24 554 q -1 621 0 596 q 13 669 -1 646 l 111 863 m 328 863 q 364 888 342 888 q 392 876 381 888 q 403 847 403 864 l 403 621 q 376 555 403 582 q 308 528 349 528 q 261 541 282 528 q 228 575 240 554 q 216 621 217 596 q 229 669 215 646 l 328 863 z "},"”":{"ha":469,"x_min":-1,"x_max":403,"o":"m 290 553 q 254 528 276 528 q 226 540 238 528 q 215 568 215 551 l 215 794 q 242 860 215 833 q 310 888 269 888 q 357 874 336 888 q 390 840 378 861 q 402 794 401 819 q 389 746 403 769 l 290 553 m 74 553 q 38 528 60 528 q 10 540 21 528 q -1 568 -1 551 l -1 794 q 26 860 -1 833 q 93 888 53 888 q 140 874 119 888 q 173 840 161 861 q 185 794 185 819 q 172 746 186 769 l 74 553 z "},"‚":{"ha":239,"x_min":0,"x_max":188,"o":"m 75 -192 q 39 -217 61 -217 q 11 -205 22 -217 q 0 -176 0 -193 l 0 50 q 27 116 0 89 q 94 143 54 143 q 142 130 121 143 q 174 96 163 117 q 187 50 186 75 q 174 1 188 25 l 75 -192 z "},"„":{"ha":442,"x_min":0,"x_max":404,"o":"m 292 -192 q 256 -217 278 -217 q 228 -205 239 -217 q 217 -176 217 -193 l 217 50 q 244 116 217 89 q 311 143 271 143 q 358 130 338 143 q 391 96 379 117 q 403 50 403 75 q 390 1 404 25 l 292 -192 m 75 -192 q 39 -217 61 -217 q 11 -205 22 -217 q 0 -176 0 -193 l 0 50 q 27 116 0 89 q 94 143 54 143 q 142 130 121 143 q 174 96 163 117 q 187 50 186 75 q 174 1 188 25 l 75 -192 z "},"`":{"ha":340,"x_min":-6,"x_max":307,"o":"m 288 760 q 303 726 307 747 q 290 703 301 711 q 264 699 279 696 l 68 726 q 15 759 35 732 q -1 821 -6 786 q 17 860 3 843 q 51 883 31 876 q 92 888 71 890 q 133 871 114 885 l 288 760 z "},"à":{"ha":743,"x_min":29,"x_max":703,"o":"m 406 671 q 523 635 468 664 q 617 560 578 606 q 680 458 657 515 q 703 336 703 400 l 703 90 q 675 26 703 53 q 613 0 647 0 q 535 44 564 0 q 522 38 528 42 q 511 32 517 35 q 443 8 478 17 q 367 0 407 0 q 181 56 263 0 q 58 201 99 113 q 37 267 44 233 q 29 336 29 300 q 37 406 29 372 q 58 471 44 439 q 181 617 99 561 q 367 672 263 672 q 387 672 378 672 q 406 671 396 672 m 365 181 q 426 192 397 181 q 475 225 454 204 q 508 274 496 246 q 521 336 521 303 q 508 395 521 367 q 474 445 496 424 q 424 479 453 467 q 365 492 396 492 q 307 479 335 492 q 258 445 279 467 q 224 395 236 424 q 211 336 211 367 q 224 276 211 304 q 259 226 238 247 q 308 193 281 206 q 365 181 336 181 m 488 807 q 503 774 507 794 q 490 751 501 758 q 464 746 479 743 l 268 774 q 215 806 235 779 q 199 868 194 833 q 217 907 203 890 q 251 931 231 924 q 292 935 271 938 q 333 918 314 932 l 488 807 z "},"´":{"ha":340,"x_min":-6,"x_max":307,"o":"m 168 871 q 208 888 186 885 q 251 883 231 890 q 285 860 271 876 q 303 821 299 843 q 287 759 307 786 q 233 726 267 732 l 38 699 q 11 703 22 696 q -1 726 0 711 q 14 760 -6 747 l 168 871 z "},"á":{"ha":743,"x_min":29,"x_max":703,"o":"m 406 671 q 523 635 468 664 q 617 560 578 606 q 680 458 657 515 q 703 336 703 400 l 703 90 q 675 26 703 53 q 613 0 647 0 q 535 44 564 0 q 522 38 528 42 q 511 32 517 35 q 443 8 478 17 q 367 0 407 0 q 181 56 263 0 q 58 201 99 113 q 37 267 44 233 q 29 336 29 300 q 37 406 29 372 q 58 471 44 439 q 181 617 99 561 q 367 672 263 672 q 387 672 378 672 q 406 671 396 672 m 365 181 q 426 192 397 181 q 475 225 454 204 q 508 274 496 246 q 521 336 521 303 q 508 395 521 367 q 474 445 496 424 q 424 479 453 467 q 365 492 396 492 q 307 479 335 492 q 258 445 279 467 q 224 395 236 424 q 211 336 211 367 q 224 276 211 304 q 259 226 238 247 q 308 193 281 206 q 365 181 336 181 m 388 921 q 428 938 406 935 q 470 933 450 940 q 504 910 490 926 q 522 871 518 893 q 506 809 526 836 q 453 776 486 782 l 257 749 q 231 753 242 746 q 218 776 219 761 q 233 810 214 797 l 388 921 z "},"?":{"ha":603,"x_min":24,"x_max":588,"o":"m 306 888 q 415 865 364 888 q 504 806 465 843 q 565 717 543 768 q 588 607 588 665 q 573 516 588 558 q 532 438 558 474 q 441 358 496 389 q 321 324 386 326 l 321 322 q 294 257 321 285 q 226 229 267 229 q 161 257 188 229 q 135 322 135 285 l 135 417 l 135 426 q 163 486 135 463 q 226 513 190 510 l 318 513 q 376 544 353 517 q 400 607 400 571 q 372 675 400 647 q 306 703 344 703 q 238 675 265 703 q 210 607 210 647 q 182 541 210 568 q 115 514 154 514 q 53 537 79 514 q 24 596 26 560 q 44 704 24 651 q 101 798 64 757 q 190 863 138 839 q 306 888 242 888 m 318 93 q 291 27 318 54 q 225 0 264 0 q 161 27 188 0 q 135 93 135 54 q 161 158 135 131 q 225 185 188 185 q 291 158 264 185 q 318 93 318 131 z "},"A":{"ha":635,"x_min":39,"x_max":596,"o":"m 594 613 q 596 610 594 613 l 596 608 l 596 497 l 596 308 l 596 93 q 569 27 596 54 q 503 0 542 0 q 435 27 463 0 q 408 93 408 54 l 408 256 l 226 256 l 226 93 q 199 27 226 54 q 131 0 171 0 q 65 27 92 0 q 39 93 39 54 l 39 308 l 39 497 l 39 608 l 39 610 l 39 613 q 61 719 39 669 q 121 807 83 769 q 209 866 158 844 q 317 888 260 888 q 424 866 374 888 q 513 807 475 844 q 572 719 550 769 q 594 613 594 669 m 408 608 q 381 673 408 646 q 317 700 354 700 q 253 673 279 700 q 226 608 226 646 l 226 443 l 408 443 l 408 608 z "},"B":{"ha":626,"x_min":40,"x_max":597,"o":"m 508 483 q 573 394 549 447 q 597 279 597 340 q 575 170 597 221 q 515 82 553 119 q 427 22 478 44 q 318 0 376 0 l 133 0 l 115 0 q 62 34 83 8 q 40 93 40 60 l 40 631 l 40 633 q 60 733 40 686 q 115 813 81 779 q 197 867 150 847 q 296 888 243 888 q 396 867 349 888 q 478 813 443 847 q 533 731 513 778 q 553 631 553 683 q 508 483 553 549 m 296 700 q 247 679 267 700 q 228 631 228 658 l 228 561 l 296 561 q 345 581 325 561 q 365 631 365 601 q 345 679 365 658 q 296 700 325 700 m 319 189 q 385 215 358 189 q 411 279 411 242 q 385 343 411 317 q 319 369 358 369 l 229 369 l 229 279 l 229 189 l 319 189 z "},"=":{"ha":603,"x_min":39,"x_max":564,"o":"m 564 369 q 538 305 564 332 q 474 278 511 278 l 131 278 q 65 305 92 278 q 39 369 39 332 q 65 434 39 407 q 131 461 92 461 l 474 461 q 538 434 511 461 q 564 369 564 407 m 564 610 q 538 545 564 572 q 474 518 511 518 l 131 518 q 65 545 92 518 q 39 610 39 572 q 65 674 39 647 q 131 701 92 701 l 474 701 q 538 674 511 701 q 564 610 564 647 z "},"<":{"ha":517,"x_min":-1,"x_max":486,"o":"m 42 496 l 344 657 q 414 664 378 675 q 468 619 450 653 q 474 550 486 586 q 429 496 463 514 l 279 415 l 429 336 q 474 282 463 318 q 468 213 486 246 q 414 168 450 179 q 344 175 378 157 l 42 335 q 9 369 19 346 q -1 417 -1 392 q 11 464 0 442 q 42 496 22 486 z "},">":{"ha":517,"x_min":-8,"x_max":479,"o":"m 436 496 q 467 464 456 486 q 478 417 478 442 q 469 369 479 392 q 436 335 458 346 l 133 175 q 64 168 100 157 q 10 213 28 179 q 3 282 -8 246 q 49 336 15 318 l 199 415 l 49 496 q 3 550 15 514 q 10 619 -8 586 q 64 664 28 653 q 133 657 100 675 l 436 496 l 436 496 z "},"ˆ":{"ha":444,"x_min":-3,"x_max":421,"o":"m 403 790 q 419 758 418 778 q 408 724 421 739 q 376 707 394 708 q 342 718 357 706 l 208 831 l 76 718 q 42 707 61 706 q 10 724 22 708 q -1 758 -3 739 q 15 790 0 778 l 178 928 q 212 939 193 942 q 240 928 231 936 l 403 790 l 403 790 z "},"˜":{"ha":575,"x_min":-3,"x_max":529,"o":"m 506 876 q 526 841 524 863 q 517 801 529 819 q 456 747 492 767 q 383 720 421 726 q 308 722 346 714 q 240 753 271 729 q 161 776 203 781 q 96 739 119 771 q 62 717 83 721 q 22 728 40 714 q 1 763 4 742 q 11 803 -3 785 q 72 858 36 838 q 145 883 107 878 q 223 879 183 889 q 296 844 263 869 q 367 827 326 821 q 431 865 407 833 q 466 886 444 883 q 506 876 488 889 z "},"¡":{"ha":251,"x_min":40,"x_max":228,"o":"m 228 610 q 200 675 228 647 q 136 703 172 703 q 68 675 96 703 q 40 610 40 647 q 68 543 40 571 q 136 515 96 515 q 200 543 172 515 q 228 610 228 571 m 136 -185 q 200 -158 172 -185 q 228 -90 228 -130 l 228 378 q 200 445 228 418 q 136 472 172 472 q 68 445 96 472 q 40 378 40 418 l 40 -90 q 68 -158 40 -130 q 136 -185 96 -185 z "},"¿":{"ha":619,"x_min":-21,"x_max":543,"o":"m 261 -185 q 152 -162 203 -185 q 63 -103 101 -140 q 1 -14 24 -65 q -21 96 -21 38 q -6 187 -21 145 q 35 265 8 229 q 126 345 71 314 q 246 379 181 376 l 246 381 q 273 446 246 418 q 340 474 300 474 q 406 446 379 474 q 432 381 432 418 l 432 286 l 432 276 q 404 217 432 240 q 340 190 376 193 l 249 190 q 190 159 214 186 q 167 96 167 132 q 194 28 167 56 q 261 0 222 0 q 329 28 301 0 q 357 96 357 56 q 385 162 357 135 q 451 189 413 189 q 514 166 488 189 q 543 107 540 143 q 523 -1 543 51 q 466 -95 503 -54 q 377 -160 429 -136 q 261 -185 325 -185 m 249 610 q 276 676 249 649 q 342 703 303 703 q 406 676 379 703 q 432 610 432 649 q 406 545 432 572 q 342 518 379 518 q 276 545 303 518 q 249 610 249 572 z "},"â":{"ha":743,"x_min":29,"x_max":703,"o":"m 406 671 q 523 635 468 664 q 617 560 578 606 q 680 458 657 515 q 703 336 703 400 l 703 90 q 675 26 703 53 q 613 0 647 0 q 535 44 564 0 q 522 38 528 42 q 511 32 517 35 q 443 8 478 17 q 367 0 407 0 q 181 56 263 0 q 58 201 99 113 q 37 267 44 233 q 29 336 29 300 q 37 406 29 372 q 58 471 44 439 q 181 617 99 561 q 367 672 263 672 q 387 672 378 672 q 406 671 396 672 m 365 181 q 426 192 397 181 q 475 225 454 204 q 508 274 496 246 q 521 336 521 303 q 508 395 521 367 q 474 445 496 424 q 424 479 453 467 q 365 492 396 492 q 307 479 335 492 q 258 445 279 467 q 224 395 236 424 q 211 336 211 367 q 224 276 211 304 q 259 226 238 247 q 308 193 281 206 q 365 181 336 181 m 561 790 q 578 758 576 778 q 567 724 579 739 q 534 707 553 708 q 500 718 515 706 l 367 831 l 235 718 q 200 707 219 706 q 168 724 181 708 q 157 758 156 739 q 174 790 158 778 l 336 928 q 370 939 351 942 q 399 928 389 936 l 561 790 l 561 790 z "},"ã":{"ha":743,"x_min":29,"x_max":703,"o":"m 406 671 q 523 635 468 664 q 617 560 578 606 q 680 458 657 515 q 703 336 703 400 l 703 90 q 675 26 703 53 q 613 0 647 0 q 535 44 564 0 q 522 38 528 42 q 511 32 517 35 q 443 8 478 17 q 367 0 407 0 q 181 56 263 0 q 58 201 99 113 q 37 267 44 233 q 29 336 29 300 q 37 406 29 372 q 58 471 44 439 q 181 617 99 561 q 367 672 263 672 q 387 672 378 672 q 406 671 396 672 m 365 181 q 426 192 397 181 q 475 225 454 204 q 508 274 496 246 q 521 336 521 303 q 508 395 521 367 q 474 445 496 424 q 424 479 453 467 q 365 492 396 492 q 307 479 335 492 q 258 445 279 467 q 224 395 236 424 q 211 336 211 367 q 224 276 211 304 q 259 226 238 247 q 308 193 281 206 q 365 181 336 181 m 614 931 q 635 895 632 917 q 625 856 638 874 q 565 801 600 821 q 492 774 529 781 q 417 776 454 768 q 349 807 379 783 q 269 830 311 835 q 204 793 228 825 q 170 772 192 775 q 131 782 149 768 q 109 817 113 796 q 119 857 106 839 q 180 912 144 892 q 253 938 215 932 q 331 933 292 943 q 404 899 371 924 q 475 881 435 875 q 539 919 515 888 q 574 940 553 938 q 614 931 596 943 z "},"¨":{"ha":496,"x_min":0,"x_max":457,"o":"m 189 846 q 161 779 189 807 q 93 751 133 751 q 27 779 54 751 q 0 846 0 807 q 27 913 0 885 q 93 940 54 940 q 161 913 133 940 q 189 846 189 885 m 457 846 q 429 779 457 807 q 361 751 401 751 q 295 779 322 751 q 268 846 268 807 q 295 913 268 885 q 361 940 322 940 q 429 913 401 940 q 457 846 457 885 z "},"è":{"ha":747,"x_min":29,"x_max":703,"o":"m 365 672 q 493 644 432 672 q 601 570 554 617 q 675 463 647 524 q 703 336 703 403 q 676 272 703 300 q 608 246 649 244 l 239 246 q 365 181 285 181 q 403 185 388 181 q 430 194 418 189 q 453 204 442 200 q 481 208 465 208 q 531 192 510 207 q 563 153 553 176 q 570 104 574 131 q 546 56 567 78 q 463 13 508 25 q 365 0 417 1 q 238 24 299 -3 q 130 98 176 51 q 56 207 83 144 q 29 336 29 269 q 56 463 29 401 q 129 570 83 524 q 236 644 175 617 q 365 672 297 672 m 492 428 q 436 474 468 457 q 365 492 404 492 q 294 474 325 492 q 239 428 263 457 l 492 428 m 511 810 q 526 776 531 797 q 514 753 525 761 q 488 749 503 746 l 292 776 q 238 809 258 782 q 222 871 218 836 q 240 910 226 893 q 274 933 254 926 q 316 938 294 940 q 357 921 338 935 l 511 810 z "},"é":{"ha":747,"x_min":29,"x_max":703,"o":"m 365 672 q 493 644 432 672 q 601 570 554 617 q 675 463 647 524 q 703 336 703 403 q 676 272 703 300 q 608 246 649 244 l 239 246 q 365 181 285 181 q 403 185 388 181 q 430 194 418 189 q 453 204 442 200 q 481 208 465 208 q 531 192 510 207 q 563 153 553 176 q 570 104 574 131 q 546 56 567 78 q 463 13 508 25 q 365 0 417 1 q 238 24 299 -3 q 130 98 176 51 q 56 207 83 144 q 29 336 29 269 q 56 463 29 401 q 129 570 83 524 q 236 644 175 617 q 365 672 297 672 m 492 428 q 436 474 468 457 q 365 492 404 492 q 294 474 325 492 q 239 428 263 457 l 492 428 m 389 922 q 429 939 407 936 q 472 935 451 942 q 506 911 492 928 q 524 872 519 894 q 508 810 528 838 q 454 778 488 783 l 258 750 q 232 755 243 747 q 219 778 221 763 q 235 811 215 799 l 389 922 z "},"ê":{"ha":747,"x_min":29,"x_max":703,"o":"m 365 672 q 493 644 432 672 q 601 570 554 617 q 675 463 647 524 q 703 336 703 403 q 676 272 703 300 q 608 246 649 244 l 239 246 q 365 181 285 181 q 403 185 388 181 q 430 194 418 189 q 453 204 442 200 q 481 208 465 208 q 531 192 510 207 q 563 153 553 176 q 570 104 574 131 q 546 56 567 78 q 463 13 508 25 q 365 0 417 1 q 238 24 299 -3 q 130 98 176 51 q 56 207 83 144 q 29 336 29 269 q 56 463 29 401 q 129 570 83 524 q 236 644 175 617 q 365 672 297 672 m 492 428 q 436 474 468 457 q 365 492 404 492 q 294 474 325 492 q 239 428 263 457 l 492 428 m 558 793 q 575 761 574 781 q 564 726 576 742 q 531 710 550 711 q 497 721 513 708 l 364 833 l 232 721 q 197 710 217 708 q 165 726 178 711 q 154 761 153 742 q 171 793 156 781 l 333 931 q 367 942 349 944 q 396 931 386 939 l 558 793 l 558 793 z "},"ë":{"ha":747,"x_min":29,"x_max":703,"o":"m 365 672 q 493 644 432 672 q 601 570 554 617 q 675 463 647 524 q 703 336 703 403 q 676 272 703 300 q 608 246 649 244 l 239 246 q 365 181 285 181 q 403 185 388 181 q 430 194 418 189 q 453 204 442 200 q 481 208 465 208 q 531 192 510 207 q 563 153 553 176 q 570 104 574 131 q 546 56 567 78 q 463 13 508 25 q 365 0 417 1 q 238 24 299 -3 q 130 98 176 51 q 56 207 83 144 q 29 336 29 269 q 56 463 29 401 q 129 570 83 524 q 236 644 175 617 q 365 672 297 672 m 492 428 q 436 474 468 457 q 365 492 404 492 q 294 474 325 492 q 239 428 263 457 l 492 428 m 325 846 q 297 779 325 807 q 229 751 269 751 q 163 779 190 751 q 136 846 136 807 q 163 913 136 885 q 229 940 190 940 q 297 913 269 940 q 325 846 325 885 m 593 846 q 565 779 593 807 q 497 751 538 751 q 431 779 458 751 q 404 846 404 807 q 431 913 404 885 q 497 940 458 940 q 565 913 538 940 q 593 846 593 885 z "},"ì":{"ha":360,"x_min":13,"x_max":325,"o":"m 236 669 q 297 643 272 669 q 324 579 321 617 l 324 88 q 300 25 324 50 q 236 -3 276 0 q 175 19 200 -3 q 144 82 150 42 l 144 585 q 174 644 147 621 q 236 669 200 668 m 306 811 q 321 778 325 799 q 308 755 319 763 q 282 750 297 747 l 86 778 q 33 810 53 783 q 17 872 13 838 q 35 911 21 894 q 69 935 49 928 q 110 939 89 942 q 151 922 132 936 l 306 811 z "},"í":{"ha":356,"x_min":31,"x_max":343,"o":"m 132 669 q 192 643 168 669 q 219 579 217 617 l 219 88 q 196 25 219 50 q 132 -3 172 0 q 71 19 96 -3 q 40 82 46 42 l 40 585 q 69 644 43 621 q 132 669 96 668 m 204 921 q 244 938 222 935 q 287 933 267 940 q 321 910 307 926 q 339 871 335 893 q 323 809 343 836 q 269 776 303 782 l 74 749 q 47 753 58 746 q 35 776 36 761 q 50 810 31 797 l 204 921 z "},"î":{"ha":458,"x_min":18,"x_max":442,"o":"m 228 669 q 288 643 264 669 q 315 579 313 617 l 315 88 q 292 25 315 50 q 228 -3 268 0 q 167 19 192 -3 q 136 82 142 42 l 136 585 q 165 644 139 621 q 228 669 192 668 m 424 790 q 440 758 439 778 q 429 724 442 739 q 397 707 415 708 q 363 718 378 706 l 229 831 l 97 718 q 63 707 82 706 q 31 724 43 708 q 19 758 18 739 q 36 790 21 778 l 199 928 q 233 939 214 942 q 261 928 251 936 l 424 790 z "},"ï":{"ha":503,"x_min":24,"x_max":481,"o":"m 251 669 q 312 643 288 669 q 339 579 336 617 l 339 88 q 315 25 339 50 q 251 -3 292 0 q 190 19 215 -3 q 160 82 165 42 l 160 585 q 189 644 163 621 q 251 669 215 668 m 213 846 q 185 779 213 807 q 117 751 157 751 q 51 779 78 751 q 24 846 24 807 q 51 913 24 885 q 117 940 78 940 q 185 913 157 940 q 213 846 213 885 m 481 846 q 453 779 481 807 q 385 751 425 751 q 319 779 346 751 q 292 846 292 807 q 319 913 292 885 q 385 940 346 940 q 453 913 425 940 q 481 846 481 885 z "},"ò":{"ha":744,"x_min":29,"x_max":701,"o":"m 365 660 q 494 633 433 660 q 601 561 556 607 q 674 454 647 515 q 701 322 701 393 q 675 192 701 253 q 603 86 649 132 q 497 14 558 40 q 365 -12 436 -12 q 235 13 296 -12 q 128 83 174 38 q 56 189 82 128 q 29 322 29 250 q 55 452 29 392 q 126 558 81 513 q 233 630 171 603 q 365 660 294 657 m 365 478 q 306 466 333 478 q 256 433 278 454 q 222 384 235 413 q 210 322 210 356 q 222 262 210 290 q 256 212 235 233 q 306 178 278 190 q 365 165 333 165 q 426 178 397 165 q 475 212 454 190 q 508 262 496 233 q 521 322 521 290 q 475 431 518 386 q 365 478 432 475 m 507 811 q 522 778 526 799 q 510 755 521 763 q 483 750 499 747 l 288 778 q 234 810 254 783 q 218 872 214 838 q 236 911 222 894 q 270 935 250 928 q 312 939 290 942 q 353 922 333 936 l 507 811 z "},"ó":{"ha":744,"x_min":29,"x_max":701,"o":"m 365 660 q 494 633 433 660 q 601 561 556 607 q 674 454 647 515 q 701 322 701 393 q 675 192 701 253 q 603 86 649 132 q 497 14 558 40 q 365 -12 436 -12 q 235 13 296 -12 q 128 83 174 38 q 56 189 82 128 q 29 322 29 250 q 55 452 29 392 q 126 558 81 513 q 233 630 171 603 q 365 660 294 657 m 365 478 q 306 466 333 478 q 256 433 278 454 q 222 384 235 413 q 210 322 210 356 q 222 262 210 290 q 256 212 235 233 q 306 178 278 190 q 365 165 333 165 q 426 178 397 165 q 475 212 454 190 q 508 262 496 233 q 521 322 521 290 q 475 431 518 386 q 365 478 432 475 m 379 921 q 419 938 397 935 q 462 933 442 940 q 496 910 482 926 q 514 871 510 893 q 498 809 518 836 q 444 776 478 782 l 249 749 q 222 753 233 746 q 210 776 211 761 q 225 810 206 797 l 379 921 z "},"ô":{"ha":744,"x_min":29,"x_max":701,"o":"m 365 660 q 494 633 433 660 q 601 561 556 607 q 674 454 647 515 q 701 322 701 393 q 675 192 701 253 q 603 86 649 132 q 497 14 558 40 q 365 -12 436 -12 q 235 13 296 -12 q 128 83 174 38 q 56 189 82 128 q 29 322 29 250 q 55 452 29 392 q 126 558 81 513 q 233 630 171 603 q 365 660 294 657 m 365 478 q 306 466 333 478 q 256 433 278 454 q 222 384 235 413 q 210 322 210 356 q 222 262 210 290 q 256 212 235 233 q 306 178 278 190 q 365 165 333 165 q 426 178 397 165 q 475 212 454 190 q 508 262 496 233 q 521 322 521 290 q 475 431 518 386 q 365 478 432 475 m 561 794 q 578 763 576 782 q 567 728 579 743 q 534 711 553 713 q 500 722 515 710 l 367 835 l 235 722 q 200 711 219 710 q 168 728 181 713 q 157 763 156 743 q 174 794 158 782 l 336 932 q 370 943 351 946 q 399 932 389 940 l 561 794 l 561 794 z "},"õ":{"ha":744,"x_min":29,"x_max":701,"o":"m 365 660 q 494 633 433 660 q 601 561 556 607 q 674 454 647 515 q 701 322 701 393 q 675 192 701 253 q 603 86 649 132 q 497 14 558 40 q 365 -12 436 -12 q 235 13 296 -12 q 128 83 174 38 q 56 189 82 128 q 29 322 29 250 q 55 452 29 392 q 126 558 81 513 q 233 630 171 603 q 365 660 294 657 m 365 478 q 306 466 333 478 q 256 433 278 454 q 222 384 235 413 q 210 322 210 356 q 222 262 210 290 q 256 212 235 233 q 306 178 278 190 q 365 165 333 165 q 426 178 397 165 q 475 212 454 190 q 508 262 496 233 q 521 322 521 290 q 475 431 518 386 q 365 478 432 475 m 607 931 q 628 895 625 917 q 618 856 631 874 q 558 801 593 821 q 485 774 522 781 q 410 776 447 768 q 342 807 372 783 q 263 830 304 835 q 197 793 221 825 q 163 772 185 775 q 124 782 142 768 q 102 817 106 796 q 113 857 99 839 q 173 912 138 892 q 247 938 208 932 q 324 933 285 943 q 397 899 364 924 q 468 881 428 875 q 532 919 508 888 q 567 940 546 938 q 607 931 589 943 z "},"ö":{"ha":744,"x_min":29,"x_max":701,"o":"m 365 660 q 494 633 433 660 q 601 561 556 607 q 674 454 647 515 q 701 322 701 393 q 675 192 701 253 q 603 86 649 132 q 497 14 558 40 q 365 -12 436 -12 q 235 13 296 -12 q 128 83 174 38 q 56 189 82 128 q 29 322 29 250 q 55 452 29 392 q 126 558 81 513 q 233 630 171 603 q 365 660 294 657 m 365 478 q 306 466 333 478 q 256 433 278 454 q 222 384 235 413 q 210 322 210 356 q 222 262 210 290 q 256 212 235 233 q 306 178 278 190 q 365 165 333 165 q 426 178 397 165 q 475 212 454 190 q 508 262 496 233 q 521 322 521 290 q 475 431 518 386 q 365 478 432 475 m 325 846 q 297 779 325 807 q 229 751 269 751 q 163 779 190 751 q 136 846 136 807 q 163 913 136 885 q 229 940 190 940 q 297 913 269 940 q 325 846 325 885 m 593 846 q 565 779 593 807 q 497 751 538 751 q 431 779 458 751 q 404 846 404 807 q 431 913 404 885 q 497 940 458 940 q 565 913 538 940 q 593 846 593 885 z "},"ù":{"ha":743,"x_min":36,"x_max":711,"o":"m 126 674 q 190 647 163 674 q 218 581 218 619 l 218 336 q 231 276 218 304 q 264 226 243 247 q 313 193 285 206 q 374 181 342 181 q 432 192 404 181 q 481 222 460 203 q 515 269 503 242 q 528 329 528 297 l 528 582 q 542 629 528 610 q 548 638 544 633 q 556 646 551 642 q 618 674 581 674 q 683 646 656 674 q 711 586 710 619 l 711 336 q 685 206 711 267 q 613 99 658 144 q 506 26 567 53 q 374 0 444 0 q 246 23 307 -3 q 138 94 185 49 q 64 199 92 139 q 36 326 36 260 l 36 582 q 62 645 36 618 q 126 674 88 672 m 511 811 q 526 778 531 799 q 514 755 525 763 q 488 750 503 747 l 292 778 q 238 810 258 783 q 222 872 218 838 q 240 911 226 894 q 274 935 254 928 q 316 939 294 942 q 357 922 338 936 l 511 811 z "},"ú":{"ha":743,"x_min":36,"x_max":711,"o":"m 126 674 q 190 647 163 674 q 218 581 218 619 l 218 336 q 231 276 218 304 q 264 226 243 247 q 313 193 285 206 q 374 181 342 181 q 432 192 404 181 q 481 222 460 203 q 515 269 503 242 q 528 329 528 297 l 528 582 q 542 629 528 610 q 548 638 544 633 q 556 646 551 642 q 618 674 581 674 q 683 646 656 674 q 711 586 710 619 l 711 336 q 685 206 711 267 q 613 99 658 144 q 506 26 567 53 q 374 0 444 0 q 246 23 307 -3 q 138 94 185 49 q 64 199 92 139 q 36 326 36 260 l 36 582 q 62 645 36 618 q 126 674 88 672 m 392 921 q 432 938 410 935 q 474 933 454 940 q 508 910 494 926 q 526 871 522 893 q 510 809 531 836 q 457 776 490 782 l 261 749 q 235 753 246 746 q 222 776 224 761 q 238 810 218 797 l 392 921 z "},"û":{"ha":743,"x_min":36,"x_max":711,"o":"m 126 674 q 190 647 163 674 q 218 581 218 619 l 218 336 q 231 276 218 304 q 264 226 243 247 q 313 193 285 206 q 374 181 342 181 q 432 192 404 181 q 481 222 460 203 q 515 269 503 242 q 528 329 528 297 l 528 582 q 542 629 528 610 q 548 638 544 633 q 556 646 551 642 q 618 674 581 674 q 683 646 656 674 q 711 586 710 619 l 711 336 q 685 206 711 267 q 613 99 658 144 q 506 26 567 53 q 374 0 444 0 q 246 23 307 -3 q 138 94 185 49 q 64 199 92 139 q 36 326 36 260 l 36 582 q 62 645 36 618 q 126 674 88 672 m 568 794 q 585 763 583 782 q 574 728 586 743 q 541 711 560 713 q 507 722 522 710 l 374 835 l 242 722 q 207 711 226 710 q 175 728 188 713 q 164 763 163 743 q 181 794 165 782 l 343 932 q 377 943 358 946 q 406 932 396 940 l 568 794 l 568 794 z "},"ü":{"ha":743,"x_min":36,"x_max":711,"o":"m 126 674 q 190 647 163 674 q 218 581 218 619 l 218 336 q 231 276 218 304 q 264 226 243 247 q 313 193 285 206 q 374 181 342 181 q 432 192 404 181 q 481 222 460 203 q 515 269 503 242 q 528 329 528 297 l 528 582 q 542 629 528 610 q 548 638 544 633 q 556 646 551 642 q 618 674 581 674 q 683 646 656 674 q 711 586 710 619 l 711 336 q 685 206 711 267 q 613 99 658 144 q 506 26 567 53 q 374 0 444 0 q 246 23 307 -3 q 138 94 185 49 q 64 199 92 139 q 36 326 36 260 l 36 582 q 62 645 36 618 q 126 674 88 672 m 338 846 q 310 779 338 807 q 242 751 282 751 q 176 779 203 751 q 149 846 149 807 q 176 913 149 885 q 242 940 203 940 q 310 913 282 940 q 338 846 338 885 m 606 846 q 578 779 606 807 q 510 751 550 751 q 444 779 471 751 q 417 846 417 807 q 444 913 417 885 q 510 940 471 940 q 578 913 550 940 q 606 846 606 885 z "},"ý":{"ha":763,"x_min":17,"x_max":692,"o":"m 107 674 q 170 650 142 674 q 199 589 199 626 l 199 338 q 210 278 199 306 q 243 229 222 250 q 292 196 264 208 q 354 183 321 183 q 412 194 383 183 q 462 225 440 206 q 497 272 483 244 q 510 331 510 299 l 510 585 q 535 647 510 621 q 600 674 561 674 q 664 649 636 674 q 692 589 692 625 l 692 -125 q 664 -186 692 -161 q 600 -211 636 -211 q 538 -186 565 -211 q 510 -121 510 -161 l 510 39 q 437 10 478 19 q 354 1 396 1 q 225 28 286 1 q 117 100 164 54 q 44 209 71 146 q 17 347 17 272 l 17 585 q 42 647 17 621 q 107 674 68 674 m 369 922 q 410 939 388 936 q 452 935 432 942 q 486 911 472 928 q 504 872 500 894 q 488 810 508 838 q 435 778 468 783 l 239 750 q 213 755 224 747 q 200 778 201 763 q 215 811 196 799 l 369 922 z "},"ÿ":{"ha":763,"x_min":17,"x_max":692,"o":"m 107 674 q 170 650 142 674 q 199 589 199 626 l 199 338 q 210 278 199 306 q 243 229 222 250 q 292 196 264 208 q 354 183 321 183 q 412 194 383 183 q 462 225 440 206 q 497 272 483 244 q 510 331 510 299 l 510 585 q 535 647 510 621 q 600 674 561 674 q 664 649 636 674 q 692 589 692 625 l 692 -125 q 664 -186 692 -161 q 600 -211 636 -211 q 538 -186 565 -211 q 510 -121 510 -161 l 510 39 q 437 10 478 19 q 354 1 396 1 q 225 28 286 1 q 117 100 164 54 q 44 209 71 146 q 17 347 17 272 l 17 585 q 42 647 17 621 q 107 674 68 674 m 307 846 q 279 779 307 807 q 211 751 251 751 q 145 779 172 751 q 118 846 118 807 q 145 913 118 885 q 211 940 172 940 q 279 913 251 940 q 307 846 307 885 m 575 846 q 547 779 575 807 q 479 751 519 751 q 413 779 440 751 q 386 846 386 807 q 413 913 386 885 q 479 940 440 940 q 547 913 519 940 q 575 846 575 885 z "},"C":{"ha":665,"x_min":33,"x_max":636,"o":"m 543 303 q 608 276 581 303 q 636 208 636 249 q 631 182 636 194 q 619 156 626 169 q 506 42 579 85 q 347 0 432 0 q 229 24 286 0 q 128 91 172 49 q 59 191 85 133 q 33 315 33 249 l 33 571 q 58 690 33 633 q 125 791 82 747 q 225 860 168 835 q 347 886 282 886 q 504 844 431 886 q 621 726 578 801 q 631 703 626 717 q 636 676 636 689 q 608 610 636 638 q 542 582 581 582 q 492 598 511 582 q 457 638 472 614 q 412 682 440 665 q 347 699 383 699 q 298 689 321 699 q 258 662 275 679 q 230 621 240 644 q 219 571 219 597 l 219 315 q 230 265 219 289 q 258 224 240 242 q 298 197 275 207 q 347 188 321 188 q 411 204 383 188 q 457 249 439 221 q 489 288 472 272 q 543 303 506 303 z "},"D":{"ha":676,"x_min":43,"x_max":643,"o":"m 326 888 q 445 863 388 888 q 547 796 503 839 q 617 696 590 753 q 643 572 643 639 l 643 315 q 617 196 643 253 q 549 95 592 139 q 448 26 506 51 q 326 0 390 0 l 138 0 q 72 27 100 0 q 43 94 43 54 l 43 793 q 70 858 43 829 q 138 888 97 888 l 326 888 m 231 699 l 231 189 l 326 189 q 376 199 353 189 q 417 226 400 208 q 444 266 435 243 q 454 315 454 289 l 454 572 q 444 622 454 599 q 417 662 435 644 q 376 689 400 679 q 326 699 353 699 l 231 699 z "},"E":{"ha":639,"x_min":43,"x_max":599,"o":"m 506 188 q 572 160 544 188 q 599 94 599 132 q 572 27 599 54 q 506 0 544 0 l 136 0 q 72 27 100 0 q 43 94 43 54 l 43 793 q 69 858 43 829 q 136 888 96 888 l 506 888 q 572 860 544 888 q 599 793 599 832 q 572 726 599 753 q 506 700 544 700 l 228 700 l 228 565 l 413 565 q 478 538 450 565 q 506 471 506 510 q 478 405 506 432 q 413 378 450 378 l 228 378 l 228 188 l 506 188 l 506 188 z "},"F":{"ha":608,"x_min":43,"x_max":600,"o":"m 232 700 l 232 511 l 414 511 q 481 483 454 511 q 507 417 507 456 q 481 351 507 378 q 414 324 454 324 l 232 324 l 232 94 q 205 27 232 54 q 138 0 178 0 q 70 27 97 0 q 43 94 43 54 l 43 793 q 70 858 43 829 q 138 888 97 888 l 507 888 q 573 860 546 888 q 600 793 600 832 q 573 726 600 753 q 507 700 546 700 l 232 700 z "},"G":{"ha":694,"x_min":33,"x_max":664,"o":"m 571 501 q 638 475 611 501 q 664 411 664 449 l 664 317 q 618 151 664 225 q 497 36 572 76 q 428 10 465 19 q 350 0 390 0 q 273 10 310 0 q 201 36 236 19 q 80 151 126 76 q 33 317 33 225 l 33 572 q 60 692 35 635 q 127 793 85 750 q 227 862 169 836 q 350 888 285 888 q 508 844 433 888 q 626 725 582 800 q 628 721 626 722 q 639 676 639 699 q 611 610 639 638 q 544 583 583 583 q 497 597 518 583 q 464 632 475 610 q 415 681 444 663 q 350 700 386 700 q 300 690 324 700 q 259 663 276 681 q 232 622 242 646 q 222 572 222 599 l 222 317 q 232 266 222 289 q 259 225 242 243 q 300 197 276 207 q 350 188 324 188 q 399 197 376 188 q 440 225 422 207 q 469 266 458 243 q 479 317 479 289 q 412 344 439 317 q 385 411 385 371 q 412 475 385 449 q 479 501 439 501 l 571 501 l 571 501 z "},"H":{"ha":703,"x_min":43,"x_max":660,"o":"m 564 886 q 630 860 600 886 q 660 793 660 833 l 660 93 q 652 58 660 75 q 631 28 644 42 q 599 8 617 15 q 564 0 582 0 q 500 27 528 0 q 472 93 472 54 l 472 349 l 231 349 l 231 93 q 203 27 231 54 q 136 0 176 0 q 72 26 99 0 q 43 93 44 53 l 43 793 q 73 861 43 836 q 136 886 103 886 q 203 858 176 886 q 231 793 231 831 l 231 538 l 472 538 l 472 793 q 500 858 472 831 q 564 886 528 886 z "},"I":{"ha":272,"x_min":42,"x_max":228,"o":"m 136 886 q 201 858 174 886 q 228 793 228 831 l 228 93 q 201 27 228 54 q 136 0 174 0 q 69 27 96 0 q 42 93 42 54 l 42 793 q 69 858 42 831 q 136 886 96 886 z "},"J":{"ha":454,"x_min":10,"x_max":418,"o":"m 322 886 q 390 858 363 886 q 418 793 418 831 l 418 315 q 392 192 417 249 q 326 94 368 136 q 226 26 283 51 q 101 0 168 1 q 37 26 64 0 q 10 93 10 53 q 37 160 10 132 q 101 188 64 188 q 152 197 128 188 q 194 224 176 207 q 222 265 211 242 q 232 315 232 289 l 232 793 q 258 858 232 831 q 322 886 285 886 z "},"K":{"ha":715,"x_min":42,"x_max":674,"o":"m 646 158 q 674 92 674 131 q 646 25 674 54 q 580 -1 618 -1 q 513 25 542 -1 l 231 311 l 231 93 q 203 27 231 54 q 136 0 176 0 q 69 27 97 0 q 42 93 42 54 l 42 793 q 69 858 42 831 q 136 886 97 886 q 203 858 176 886 q 231 793 231 831 l 231 575 l 513 858 q 580 886 542 886 q 646 858 618 886 q 674 792 674 831 q 646 726 674 754 l 363 443 l 646 158 z "},"L":{"ha":586,"x_min":43,"x_max":579,"o":"m 488 194 q 552 167 525 194 q 579 101 579 140 q 552 34 579 61 q 488 7 525 7 l 139 7 q 72 34 99 7 q 43 101 46 61 l 43 800 q 71 866 43 839 q 139 893 99 893 q 203 866 175 893 q 232 800 232 839 l 232 194 l 488 194 l 488 194 z "},"M":{"ha":1017,"x_min":40,"x_max":976,"o":"m 696 888 q 803 865 753 888 q 890 804 853 843 q 951 715 928 765 q 976 606 974 664 l 976 94 q 949 27 976 54 q 883 0 921 0 q 816 27 843 0 q 789 94 789 54 l 789 594 q 762 662 789 635 q 696 689 735 689 q 629 662 657 689 q 601 594 601 635 l 601 94 q 574 27 601 54 q 508 0 547 0 q 442 27 469 0 q 415 94 415 54 l 415 594 q 388 662 415 635 q 321 689 361 689 q 255 662 282 689 q 228 594 228 635 l 228 94 q 201 27 228 54 q 133 0 174 0 q 67 27 94 0 q 40 94 40 54 l 40 606 q 62 711 40 660 q 122 801 83 763 q 211 864 160 840 q 321 888 263 888 q 420 868 374 888 q 508 815 467 849 q 595 867 549 847 q 696 888 642 888 z "},"N":{"ha":707,"x_min":38,"x_max":668,"o":"m 353 888 q 472 863 417 888 q 571 796 528 839 q 640 696 614 753 q 668 572 665 639 l 668 94 q 641 27 668 54 q 575 0 614 0 q 508 27 535 0 q 481 94 481 54 l 481 572 q 470 622 481 599 q 442 663 460 646 q 402 690 425 681 q 353 700 379 700 q 303 690 326 700 q 262 663 279 681 q 234 622 244 646 q 224 572 224 599 l 224 94 q 197 27 224 54 q 132 0 169 0 q 65 27 92 0 q 38 94 38 54 l 38 572 q 63 693 39 636 q 131 792 88 750 q 231 860 174 835 q 353 888 288 885 z "},"O":{"ha":697,"x_min":33,"x_max":664,"o":"m 350 888 q 469 863 414 888 q 567 796 525 839 q 635 696 610 753 q 664 572 661 639 l 664 317 q 637 197 661 254 q 571 95 613 139 q 473 26 529 51 q 350 0 417 0 q 230 24 286 0 q 131 92 174 49 q 62 192 88 135 q 33 317 36 250 l 33 572 q 60 692 35 635 q 127 793 85 750 q 227 862 169 836 q 350 888 285 888 m 350 188 q 399 197 376 188 q 440 225 422 207 q 467 266 457 243 q 478 317 478 289 l 478 572 q 467 622 478 599 q 440 663 457 646 q 399 690 422 681 q 350 700 376 700 q 299 690 322 700 q 258 663 276 681 q 231 622 240 646 q 221 572 221 599 l 221 317 q 258 225 221 263 q 350 188 296 188 z "},"P":{"ha":679,"x_min":38,"x_max":667,"o":"m 353 888 q 471 863 414 888 q 572 795 528 838 q 641 695 615 753 q 667 572 667 638 q 642 449 667 507 q 576 349 618 392 q 477 281 535 306 q 353 256 419 256 q 288 266 321 256 q 225 300 256 276 l 225 94 q 197 27 225 54 q 131 0 169 0 q 65 27 92 0 q 38 94 38 54 l 38 572 q 64 690 39 633 q 132 791 89 747 q 231 861 175 835 q 353 888 288 888 m 353 443 q 443 480 406 443 q 481 572 481 517 q 470 622 481 599 q 442 663 460 646 q 402 690 425 681 q 353 700 379 700 q 303 690 326 700 q 262 663 279 681 q 235 622 244 646 q 225 572 225 599 q 235 521 225 544 q 262 480 244 497 q 303 453 279 463 q 353 443 326 443 z "},"Q":{"ha":701,"x_min":33,"x_max":665,"o":"m 665 317 q 653 233 665 272 q 622 160 642 194 q 650 93 650 132 q 622 25 650 54 q 556 0 594 0 q 490 25 518 0 l 486 31 q 349 0 421 0 q 271 10 308 0 q 201 36 233 19 q 80 151 126 76 q 33 317 33 225 l 33 572 q 59 692 35 635 q 126 793 83 750 q 226 862 169 836 q 349 888 283 888 q 469 863 413 888 q 567 796 525 839 q 636 696 610 753 q 665 572 663 639 l 665 317 m 221 317 q 253 232 221 268 q 332 189 285 196 q 317 249 314 217 q 343 307 319 282 q 410 334 371 333 q 475 307 449 335 q 476 312 475 310 q 476 317 476 314 l 476 572 q 467 622 476 599 q 440 663 457 646 q 399 690 422 681 q 349 700 375 700 q 299 690 322 700 q 258 663 275 681 q 231 622 240 646 q 221 572 221 599 l 221 317 z "},"R":{"ha":696,"x_min":38,"x_max":667,"o":"m 585 160 q 605 128 599 146 q 611 93 611 111 q 605 58 611 75 q 585 26 599 40 q 519 0 557 0 q 453 26 481 0 l 225 254 l 225 94 q 197 27 225 54 q 131 0 169 0 q 65 27 93 0 q 38 94 38 54 l 38 572 q 63 692 39 635 q 131 793 88 750 q 231 862 174 836 q 354 888 288 888 q 472 863 415 888 q 572 795 529 838 q 641 695 615 753 q 667 572 667 638 q 613 394 667 472 q 468 276 558 315 l 585 160 m 354 700 q 303 690 326 700 q 263 663 281 681 q 235 622 244 646 q 225 572 225 599 q 235 524 225 547 q 263 482 246 500 q 304 453 281 464 q 354 443 328 443 q 444 480 406 443 q 482 572 482 517 q 472 622 482 599 q 444 663 461 646 q 403 690 426 681 q 354 700 379 700 z "},"S":{"ha":696,"x_min":33,"x_max":663,"o":"m 301 700 q 245 676 268 700 q 221 615 222 651 q 245 560 222 583 q 301 538 268 538 l 396 538 q 495 517 447 538 q 581 459 543 496 q 640 373 618 422 q 663 268 663 324 q 642 165 663 214 q 585 81 621 117 q 500 23 549 44 q 396 0 451 1 l 149 0 q 81 27 107 0 q 54 94 54 54 q 81 160 54 132 q 149 188 108 188 l 396 188 q 453 211 428 188 q 478 268 478 235 q 453 326 478 303 q 397 350 429 349 l 301 350 q 200 372 249 351 q 115 428 151 393 q 56 513 78 464 q 33 618 33 561 q 54 718 33 669 q 112 804 75 767 q 197 865 149 842 q 301 888 246 888 l 549 888 q 613 860 586 888 q 642 793 639 833 q 615 726 642 753 q 549 700 589 700 l 301 700 l 301 700 z "},"T":{"ha":667,"x_min":18,"x_max":649,"o":"m 554 888 q 622 860 594 888 q 649 793 649 832 q 622 726 649 753 q 554 700 594 700 l 426 700 l 426 94 q 400 27 426 54 q 333 0 374 0 q 267 27 293 0 q 240 94 240 54 l 240 700 l 111 700 q 45 726 72 700 q 18 793 18 753 q 45 860 18 832 q 111 888 72 888 l 554 888 l 554 888 z "},"U":{"ha":707,"x_min":38,"x_max":668,"o":"m 351 0 q 231 24 288 0 q 133 92 175 49 q 66 192 92 135 q 38 317 40 250 l 38 793 q 65 860 38 832 q 132 888 92 888 q 197 860 171 888 q 224 793 224 832 l 224 317 q 234 266 224 289 q 262 225 244 243 q 302 197 279 207 q 351 188 325 188 q 401 197 378 188 q 442 225 425 207 q 470 266 460 243 q 481 317 481 289 l 481 793 q 508 860 481 832 q 575 888 535 888 q 641 860 614 888 q 668 793 668 832 l 668 317 q 642 196 667 253 q 576 95 618 139 q 476 26 533 51 q 351 0 418 0 z "},"V":{"ha":792,"x_min":22,"x_max":768,"o":"m 483 61 q 448 17 472 33 q 396 0 424 0 q 344 18 369 0 q 308 61 319 36 l 36 760 q 38 831 22 796 q 90 882 54 867 q 162 880 126 896 q 211 826 197 864 l 396 351 l 581 826 q 630 880 594 864 q 701 882 665 896 q 753 831 738 867 q 754 760 768 796 l 483 61 l 483 61 z "},"W":{"ha":1017,"x_min":40,"x_max":976,"o":"m 319 0 q 212 22 261 0 q 126 81 163 43 q 67 171 89 119 q 40 282 44 222 l 40 793 q 67 860 40 832 q 132 888 93 888 q 199 860 172 888 q 225 793 225 832 l 225 292 q 253 226 225 253 q 319 199 282 199 q 385 226 357 199 q 414 292 414 253 l 414 793 q 441 860 414 832 q 508 888 468 888 q 574 860 547 888 q 601 793 601 832 l 601 292 q 628 226 601 253 q 693 199 656 199 q 760 226 733 199 q 788 292 788 253 l 788 793 q 815 860 788 832 q 882 888 843 888 q 948 860 919 888 q 976 793 976 832 l 976 282 q 953 174 975 225 q 892 85 931 124 q 803 23 854 46 q 693 0 751 0 q 594 18 643 0 q 508 72 546 36 q 422 20 468 39 q 319 0 375 1 z "},"X":{"ha":763,"x_min":38,"x_max":725,"o":"m 701 149 q 717 78 724 117 q 678 17 710 39 q 608 1 646 -7 q 546 40 569 8 l 382 278 l 215 40 q 155 1 193 8 q 85 17 117 -7 q 58 44 68 28 q 45 78 49 60 q 46 114 42 96 q 61 149 50 132 l 265 443 l 61 739 q 45 809 38 771 q 85 871 53 847 q 155 886 117 893 q 215 847 193 879 l 382 610 l 546 847 q 608 886 569 879 q 678 871 646 893 q 717 809 710 847 q 701 739 725 771 l 497 443 l 701 149 l 701 149 z "},"Y":{"ha":724,"x_min":22,"x_max":701,"o":"m 653 867 q 694 806 686 843 q 678 735 701 768 l 454 415 l 454 94 q 426 27 454 54 q 361 0 399 0 q 294 27 322 0 q 267 94 267 54 l 267 415 l 43 735 q 28 806 22 768 q 67 867 35 843 q 137 882 99 889 q 196 842 175 875 l 361 607 l 524 842 q 584 882 546 875 q 653 867 622 889 z "},"Z":{"ha":744,"x_min":54,"x_max":688,"o":"m 594 188 q 661 160 635 188 q 688 94 688 132 q 661 27 688 54 q 594 0 635 0 l 150 0 q 101 15 122 1 q 69 49 81 28 q 58 94 58 69 q 72 144 58 119 l 74 146 l 422 700 l 147 700 q 82 726 110 700 q 54 793 54 753 q 82 860 54 832 q 147 888 110 888 l 592 888 q 640 872 618 886 q 673 837 661 858 q 685 790 685 815 q 669 739 685 764 l 322 188 l 594 188 l 594 188 z "},"À":{"ha":640,"x_min":39,"x_max":596,"o":"m 594 613 q 596 610 594 613 l 596 608 l 596 497 l 596 308 l 596 93 q 569 27 596 54 q 503 0 542 0 q 435 27 463 0 q 408 93 408 54 l 408 256 l 226 256 l 226 93 q 199 27 226 54 q 131 0 171 0 q 65 27 92 0 q 39 93 39 54 l 39 308 l 39 497 l 39 608 l 39 610 l 39 613 q 61 719 39 669 q 121 807 83 769 q 209 866 158 844 q 317 888 260 888 q 424 866 374 888 q 513 807 475 844 q 572 719 550 769 q 594 613 594 669 m 408 608 q 381 673 408 646 q 317 700 354 700 q 253 673 279 700 q 226 608 226 646 l 226 443 l 408 443 l 408 608 m 458 972 q 474 939 478 960 q 461 916 472 924 q 435 911 450 908 l 239 939 q 185 972 206 944 q 169 1033 165 999 q 188 1072 174 1056 q 222 1096 201 1089 q 263 1100 242 1103 q 304 1083 285 1097 l 458 972 z "},"Á":{"ha":640,"x_min":39,"x_max":596,"o":"m 594 613 q 596 610 594 613 l 596 608 l 596 497 l 596 308 l 596 93 q 569 27 596 54 q 503 0 542 0 q 435 27 463 0 q 408 93 408 54 l 408 256 l 226 256 l 226 93 q 199 27 226 54 q 131 0 171 0 q 65 27 92 0 q 39 93 39 54 l 39 308 l 39 497 l 39 608 l 39 610 l 39 613 q 61 719 39 669 q 121 807 83 769 q 209 866 158 844 q 317 888 260 888 q 424 866 374 888 q 513 807 475 844 q 572 719 550 769 q 594 613 594 669 m 408 608 q 381 673 408 646 q 317 700 354 700 q 253 673 279 700 q 226 608 226 646 l 226 443 l 408 443 l 408 608 m 336 1083 q 376 1100 354 1097 q 419 1096 399 1103 q 453 1072 439 1089 q 471 1033 467 1056 q 455 972 475 999 q 401 939 435 944 l 206 911 q 179 916 190 908 q 167 939 168 924 q 182 972 163 960 l 336 1083 z "},"Â":{"ha":640,"x_min":39,"x_max":596,"o":"m 594 613 q 596 610 594 613 l 596 608 l 596 497 l 596 308 l 596 93 q 569 27 596 54 q 503 0 542 0 q 435 27 463 0 q 408 93 408 54 l 408 256 l 226 256 l 226 93 q 199 27 226 54 q 131 0 171 0 q 65 27 92 0 q 39 93 39 54 l 39 308 l 39 497 l 39 608 l 39 610 l 39 613 q 61 719 39 669 q 121 807 83 769 q 209 866 158 844 q 317 888 260 888 q 424 866 374 888 q 513 807 475 844 q 572 719 550 769 q 594 613 594 669 m 408 608 q 381 673 408 646 q 317 700 354 700 q 253 673 279 700 q 226 608 226 646 l 226 443 l 408 443 l 408 608 m 514 1003 q 531 971 529 990 q 519 936 532 951 q 487 919 506 921 q 453 931 468 918 l 319 1043 l 188 931 q 153 919 172 918 q 121 936 133 921 q 110 971 108 951 q 126 1003 111 990 l 289 1140 q 323 1151 304 1154 q 351 1140 342 1149 l 514 1003 l 514 1003 z "},"Ã":{"ha":640,"x_min":39,"x_max":596,"o":"m 594 613 q 596 610 594 613 l 596 608 l 596 497 l 596 308 l 596 93 q 569 27 596 54 q 503 0 542 0 q 435 27 463 0 q 408 93 408 54 l 408 256 l 226 256 l 226 93 q 199 27 226 54 q 131 0 171 0 q 65 27 92 0 q 39 93 39 54 l 39 308 l 39 497 l 39 608 l 39 610 l 39 613 q 61 719 39 669 q 121 807 83 769 q 209 866 158 844 q 317 888 260 888 q 424 866 374 888 q 513 807 475 844 q 572 719 550 769 q 594 613 594 669 m 408 608 q 381 673 408 646 q 317 700 354 700 q 253 673 279 700 q 226 608 226 646 l 226 443 l 408 443 l 408 608 m 563 1089 q 583 1053 581 1075 q 574 1014 586 1032 q 513 959 549 979 q 440 933 478 939 q 365 934 403 926 q 297 965 328 942 q 218 988 260 993 q 153 951 176 983 q 119 930 140 933 q 79 940 97 926 q 58 976 61 954 q 68 1015 54 997 q 128 1070 93 1050 q 202 1096 164 1090 q 280 1092 240 1101 q 353 1057 319 1082 q 424 1040 383 1033 q 488 1078 464 1046 q 523 1099 501 1096 q 563 1089 544 1101 z "},"Ä":{"ha":640,"x_min":39,"x_max":596,"o":"m 594 613 q 596 610 594 613 l 596 608 l 596 497 l 596 308 l 596 93 q 569 27 596 54 q 503 0 542 0 q 435 27 463 0 q 408 93 408 54 l 408 256 l 226 256 l 226 93 q 199 27 226 54 q 131 0 171 0 q 65 27 92 0 q 39 93 39 54 l 39 308 l 39 497 l 39 608 l 39 610 l 39 613 q 61 719 39 669 q 121 807 83 769 q 209 866 158 844 q 317 888 260 888 q 424 866 374 888 q 513 807 475 844 q 572 719 550 769 q 594 613 594 669 m 408 608 q 381 673 408 646 q 317 700 354 700 q 253 673 279 700 q 226 608 226 646 l 226 443 l 408 443 l 408 608 m 281 1058 q 253 992 281 1019 q 185 964 225 964 q 119 992 146 964 q 92 1058 92 1019 q 119 1125 92 1097 q 185 1153 146 1153 q 253 1125 225 1153 q 281 1058 281 1097 m 549 1058 q 521 992 549 1019 q 453 964 493 964 q 387 992 414 964 q 360 1058 360 1019 q 387 1125 360 1097 q 453 1153 414 1153 q 521 1125 493 1153 q 549 1058 549 1097 z "},"È":{"ha":644,"x_min":43,"x_max":599,"o":"m 506 188 q 572 160 544 188 q 599 94 599 132 q 572 27 599 54 q 506 0 544 0 l 136 0 q 72 27 100 0 q 43 94 43 54 l 43 793 q 69 858 43 829 q 136 888 96 888 l 506 888 q 572 860 544 888 q 599 793 599 832 q 572 726 599 753 q 506 700 544 700 l 228 700 l 228 565 l 413 565 q 478 538 450 565 q 506 471 506 510 q 478 405 506 432 q 413 378 450 378 l 228 378 l 228 188 l 506 188 l 506 188 m 460 972 q 475 939 479 960 q 463 916 474 924 q 436 911 451 908 l 240 939 q 187 972 207 944 q 171 1033 167 999 q 189 1072 175 1056 q 223 1096 203 1089 q 265 1100 243 1103 q 306 1083 286 1097 l 460 972 z "},"É":{"ha":644,"x_min":43,"x_max":599,"o":"m 506 188 q 572 160 544 188 q 599 94 599 132 q 572 27 599 54 q 506 0 544 0 l 136 0 q 72 27 100 0 q 43 94 43 54 l 43 793 q 69 858 43 829 q 136 888 96 888 l 506 888 q 572 860 544 888 q 599 793 599 832 q 572 726 599 753 q 506 700 544 700 l 228 700 l 228 565 l 413 565 q 478 538 450 565 q 506 471 506 510 q 478 405 506 432 q 413 378 450 378 l 228 378 l 228 188 l 506 188 l 506 188 m 338 1083 q 378 1100 356 1097 q 420 1096 400 1103 q 454 1072 440 1089 q 472 1033 468 1056 q 456 972 476 999 q 403 939 436 944 l 207 911 q 181 916 192 908 q 168 939 169 924 q 183 972 164 960 l 338 1083 z "},"Ê":{"ha":644,"x_min":43,"x_max":599,"o":"m 506 188 q 572 160 544 188 q 599 94 599 132 q 572 27 599 54 q 506 0 544 0 l 136 0 q 72 27 100 0 q 43 94 43 54 l 43 793 q 69 858 43 829 q 136 888 96 888 l 506 888 q 572 860 544 888 q 599 793 599 832 q 572 726 599 753 q 506 700 544 700 l 228 700 l 228 565 l 413 565 q 478 538 450 565 q 506 471 506 510 q 478 405 506 432 q 413 378 450 378 l 228 378 l 228 188 l 506 188 l 506 188 m 515 1003 q 532 971 531 990 q 521 936 533 951 q 488 919 507 921 q 454 931 469 918 l 321 1043 l 189 931 q 154 919 174 918 q 122 936 135 921 q 111 971 110 951 q 128 1003 113 990 l 290 1140 q 324 1151 306 1154 q 353 1140 343 1149 l 515 1003 l 515 1003 z "},"Ë":{"ha":644,"x_min":43,"x_max":599,"o":"m 506 188 q 572 160 544 188 q 599 94 599 132 q 572 27 599 54 q 506 0 544 0 l 136 0 q 72 27 100 0 q 43 94 43 54 l 43 793 q 69 858 43 829 q 136 888 96 888 l 506 888 q 572 860 544 888 q 599 793 599 832 q 572 726 599 753 q 506 700 544 700 l 228 700 l 228 565 l 413 565 q 478 538 450 565 q 506 471 506 510 q 478 405 506 432 q 413 378 450 378 l 228 378 l 228 188 l 506 188 l 506 188 m 282 1058 q 254 992 282 1019 q 186 964 226 964 q 120 992 147 964 q 93 1058 93 1019 q 120 1125 93 1097 q 186 1153 147 1153 q 254 1125 226 1153 q 282 1058 282 1097 m 550 1058 q 522 992 550 1019 q 454 964 494 964 q 388 992 415 964 q 361 1058 361 1019 q 388 1125 361 1097 q 454 1153 415 1153 q 522 1125 494 1153 q 550 1058 550 1097 z "},"Ì":{"ha":278,"x_min":-12,"x_max":300,"o":"m 136 886 q 201 858 174 886 q 228 793 228 831 l 228 93 q 201 27 228 54 q 136 0 174 0 q 69 27 96 0 q 42 93 42 54 l 42 793 q 69 858 42 831 q 136 886 96 886 m 281 972 q 296 939 300 960 q 283 916 294 924 q 257 911 272 908 l 61 939 q 8 972 28 944 q -8 1033 -12 999 q 10 1072 -4 1056 q 44 1096 24 1089 q 85 1100 64 1103 q 126 1083 107 1097 l 281 972 z "},"Í":{"ha":278,"x_min":-15,"x_max":297,"o":"m 136 886 q 201 858 174 886 q 228 793 228 831 l 228 93 q 201 27 228 54 q 136 0 174 0 q 69 27 96 0 q 42 93 42 54 l 42 793 q 69 858 42 831 q 136 886 96 886 m 158 1083 q 199 1100 176 1097 q 241 1096 221 1103 q 275 1072 261 1089 q 293 1033 289 1056 q 277 972 297 999 q 224 939 257 944 l 28 911 q 1 916 13 908 q -11 939 -10 924 q 4 972 -15 960 l 158 1083 z "},"Î":{"ha":278,"x_min":-69,"x_max":354,"o":"m 136 886 q 201 858 174 886 q 228 793 228 831 l 228 93 q 201 27 228 54 q 136 0 174 0 q 69 27 96 0 q 42 93 42 54 l 42 793 q 69 858 42 831 q 136 886 96 886 m 336 1003 q 353 971 351 990 q 342 936 354 951 q 309 919 328 921 q 275 931 290 918 l 142 1043 l 10 931 q -25 919 -6 918 q -57 936 -44 921 q -68 971 -69 951 q -51 1003 -67 990 l 111 1140 q 145 1151 126 1154 q 174 1140 164 1149 l 336 1003 l 336 1003 z "},"Ï":{"ha":278,"x_min":-86,"x_max":371,"o":"m 136 886 q 201 858 174 886 q 228 793 228 831 l 228 93 q 201 27 228 54 q 136 0 174 0 q 69 27 96 0 q 42 93 42 54 l 42 793 q 69 858 42 831 q 136 886 96 886 m 103 1058 q 75 992 103 1019 q 7 964 47 964 q -59 992 -32 964 q -86 1058 -86 1019 q -59 1125 -86 1097 q 7 1153 -32 1153 q 75 1125 47 1153 q 103 1058 103 1097 m 371 1058 q 343 992 371 1019 q 275 964 315 964 q 209 992 236 964 q 182 1058 182 1019 q 209 1125 182 1097 q 275 1153 236 1153 q 343 1125 315 1153 q 371 1058 371 1097 z "},"Ò":{"ha":703,"x_min":33,"x_max":664,"o":"m 350 888 q 469 863 414 888 q 567 796 525 839 q 635 696 610 753 q 664 572 661 639 l 664 317 q 637 197 661 254 q 571 95 613 139 q 473 26 529 51 q 350 0 417 0 q 230 24 286 0 q 131 92 174 49 q 62 192 88 135 q 33 317 36 250 l 33 572 q 60 692 35 635 q 127 793 85 750 q 227 862 169 836 q 350 888 285 888 m 350 188 q 399 197 376 188 q 440 225 422 207 q 467 266 457 243 q 478 317 478 289 l 478 572 q 467 622 478 599 q 440 663 457 646 q 399 690 422 681 q 350 700 376 700 q 299 690 322 700 q 258 663 276 681 q 231 622 240 646 q 221 572 221 599 l 221 317 q 258 225 221 263 q 350 188 296 188 m 489 972 q 504 939 508 960 q 492 916 503 924 q 465 911 481 908 l 269 939 q 216 972 236 944 q 200 1033 196 999 q 218 1072 204 1056 q 252 1096 232 1089 q 294 1100 272 1103 q 335 1083 315 1097 l 489 972 z "},"Ó":{"ha":703,"x_min":33,"x_max":664,"o":"m 350 888 q 469 863 414 888 q 567 796 525 839 q 635 696 610 753 q 664 572 661 639 l 664 317 q 637 197 661 254 q 571 95 613 139 q 473 26 529 51 q 350 0 417 0 q 230 24 286 0 q 131 92 174 49 q 62 192 88 135 q 33 317 36 250 l 33 572 q 60 692 35 635 q 127 793 85 750 q 227 862 169 836 q 350 888 285 888 m 350 188 q 399 197 376 188 q 440 225 422 207 q 467 266 457 243 q 478 317 478 289 l 478 572 q 467 622 478 599 q 440 663 457 646 q 399 690 422 681 q 350 700 376 700 q 299 690 322 700 q 258 663 276 681 q 231 622 240 646 q 221 572 221 599 l 221 317 q 258 225 221 263 q 350 188 296 188 m 367 1083 q 407 1100 385 1097 q 449 1096 429 1103 q 483 1072 469 1089 q 501 1033 497 1056 q 485 972 506 999 q 432 939 465 944 l 236 911 q 210 916 221 908 q 197 939 199 924 q 213 972 193 960 l 367 1083 z "},"Ô":{"ha":703,"x_min":33,"x_max":664,"o":"m 350 888 q 469 863 414 888 q 567 796 525 839 q 635 696 610 753 q 664 572 661 639 l 664 317 q 637 197 661 254 q 571 95 613 139 q 473 26 529 51 q 350 0 417 0 q 230 24 286 0 q 131 92 174 49 q 62 192 88 135 q 33 317 36 250 l 33 572 q 60 692 35 635 q 127 793 85 750 q 227 862 169 836 q 350 888 285 888 m 350 188 q 399 197 376 188 q 440 225 422 207 q 467 266 457 243 q 478 317 478 289 l 478 572 q 467 622 478 599 q 440 663 457 646 q 399 690 422 681 q 350 700 376 700 q 299 690 322 700 q 258 663 276 681 q 231 622 240 646 q 221 572 221 599 l 221 317 q 258 225 221 263 q 350 188 296 188 m 544 1003 q 561 971 560 990 q 550 936 563 951 q 517 919 536 921 q 483 931 499 918 l 350 1043 l 218 931 q 183 919 203 918 q 151 936 164 921 q 140 971 139 951 q 157 1003 142 990 l 319 1140 q 353 1151 335 1154 q 382 1140 372 1149 l 544 1003 l 544 1003 z "},"Õ":{"ha":703,"x_min":33,"x_max":664,"o":"m 350 888 q 469 863 414 888 q 567 796 525 839 q 635 696 610 753 q 664 572 661 639 l 664 317 q 637 197 661 254 q 571 95 613 139 q 473 26 529 51 q 350 0 417 0 q 230 24 286 0 q 131 92 174 49 q 62 192 88 135 q 33 317 36 250 l 33 572 q 60 692 35 635 q 127 793 85 750 q 227 862 169 836 q 350 888 285 888 m 350 188 q 399 197 376 188 q 440 225 422 207 q 467 266 457 243 q 478 317 478 289 l 478 572 q 467 622 478 599 q 440 663 457 646 q 399 690 422 681 q 350 700 376 700 q 299 690 322 700 q 258 663 276 681 q 231 622 240 646 q 221 572 221 599 l 221 317 q 258 225 221 263 q 350 188 296 188 m 593 1089 q 614 1053 611 1075 q 604 1014 617 1032 q 544 959 579 979 q 471 933 508 939 q 396 934 433 926 q 328 965 358 942 q 249 988 290 993 q 183 951 207 983 q 149 930 171 933 q 110 940 128 926 q 88 976 92 954 q 99 1015 85 997 q 159 1070 124 1050 q 233 1096 194 1090 q 310 1092 271 1101 q 383 1057 350 1082 q 454 1040 414 1033 q 518 1078 494 1046 q 553 1099 532 1096 q 593 1089 575 1101 z "},"Ö":{"ha":703,"x_min":33,"x_max":664,"o":"m 350 888 q 469 863 414 888 q 567 796 525 839 q 635 696 610 753 q 664 572 661 639 l 664 317 q 637 197 661 254 q 571 95 613 139 q 473 26 529 51 q 350 0 417 0 q 230 24 286 0 q 131 92 174 49 q 62 192 88 135 q 33 317 36 250 l 33 572 q 60 692 35 635 q 127 793 85 750 q 227 862 169 836 q 350 888 285 888 m 350 188 q 399 197 376 188 q 440 225 422 207 q 467 266 457 243 q 478 317 478 289 l 478 572 q 467 622 478 599 q 440 663 457 646 q 399 690 422 681 q 350 700 376 700 q 299 690 322 700 q 258 663 276 681 q 231 622 240 646 q 221 572 221 599 l 221 317 q 258 225 221 263 q 350 188 296 188 m 311 1058 q 283 992 311 1019 q 215 964 256 964 q 149 992 176 964 q 122 1058 122 1019 q 149 1125 122 1097 q 215 1153 176 1153 q 283 1125 256 1153 q 311 1058 311 1097 m 579 1058 q 551 992 579 1019 q 483 964 524 964 q 417 992 444 964 q 390 1058 390 1019 q 417 1125 390 1097 q 483 1153 444 1153 q 551 1125 524 1153 q 579 1058 579 1097 z "},"Ù":{"ha":711,"x_min":38,"x_max":668,"o":"m 351 0 q 231 24 288 0 q 133 92 175 49 q 66 192 92 135 q 38 317 40 250 l 38 793 q 65 860 38 832 q 132 888 92 888 q 197 860 171 888 q 224 793 224 832 l 224 317 q 234 266 224 289 q 262 225 244 243 q 302 197 279 207 q 351 188 325 188 q 401 197 378 188 q 442 225 425 207 q 470 266 460 243 q 481 317 481 289 l 481 793 q 508 860 481 832 q 575 888 535 888 q 641 860 614 888 q 668 793 668 832 l 668 317 q 642 196 667 253 q 576 95 618 139 q 476 26 533 51 q 351 0 418 0 m 493 972 q 508 939 513 960 q 496 916 507 924 q 469 911 485 908 l 274 939 q 220 972 240 944 q 204 1033 200 999 q 222 1072 208 1056 q 256 1096 236 1089 q 298 1100 276 1103 q 339 1083 319 1097 l 493 972 z "},"Ú":{"ha":711,"x_min":38,"x_max":668,"o":"m 351 0 q 231 24 288 0 q 133 92 175 49 q 66 192 92 135 q 38 317 40 250 l 38 793 q 65 860 38 832 q 132 888 92 888 q 197 860 171 888 q 224 793 224 832 l 224 317 q 234 266 224 289 q 262 225 244 243 q 302 197 279 207 q 351 188 325 188 q 401 197 378 188 q 442 225 425 207 q 470 266 460 243 q 481 317 481 289 l 481 793 q 508 860 481 832 q 575 888 535 888 q 641 860 614 888 q 668 793 668 832 l 668 317 q 642 196 667 253 q 576 95 618 139 q 476 26 533 51 q 351 0 418 0 m 371 1083 q 411 1100 389 1097 q 453 1096 433 1103 q 488 1072 474 1089 q 506 1033 501 1056 q 490 972 510 999 q 436 939 469 944 l 240 911 q 214 916 225 908 q 201 939 203 924 q 217 972 197 960 l 371 1083 z "},"Û":{"ha":711,"x_min":38,"x_max":668,"o":"m 351 0 q 231 24 288 0 q 133 92 175 49 q 66 192 92 135 q 38 317 40 250 l 38 793 q 65 860 38 832 q 132 888 92 888 q 197 860 171 888 q 224 793 224 832 l 224 317 q 234 266 224 289 q 262 225 244 243 q 302 197 279 207 q 351 188 325 188 q 401 197 378 188 q 442 225 425 207 q 470 266 460 243 q 481 317 481 289 l 481 793 q 508 860 481 832 q 575 888 535 888 q 641 860 614 888 q 668 793 668 832 l 668 317 q 642 196 667 253 q 576 95 618 139 q 476 26 533 51 q 351 0 418 0 m 549 1003 q 565 971 564 990 q 554 936 567 951 q 522 919 540 921 q 488 931 503 918 l 354 1043 l 222 931 q 188 919 207 918 q 156 936 168 921 q 144 971 143 951 q 161 1003 146 990 l 324 1140 q 358 1151 339 1154 q 386 1140 376 1149 l 549 1003 l 549 1003 z "},"Ü":{"ha":711,"x_min":38,"x_max":668,"o":"m 351 0 q 231 24 288 0 q 133 92 175 49 q 66 192 92 135 q 38 317 40 250 l 38 793 q 65 860 38 832 q 132 888 92 888 q 197 860 171 888 q 224 793 224 832 l 224 317 q 234 266 224 289 q 262 225 244 243 q 302 197 279 207 q 351 188 325 188 q 401 197 378 188 q 442 225 425 207 q 470 266 460 243 q 481 317 481 289 l 481 793 q 508 860 481 832 q 575 888 535 888 q 641 860 614 888 q 668 793 668 832 l 668 317 q 642 196 667 253 q 576 95 618 139 q 476 26 533 51 q 351 0 418 0 m 315 1058 q 288 992 315 1019 q 219 964 260 964 q 153 992 181 964 q 126 1058 126 1019 q 153 1125 126 1097 q 219 1153 181 1153 q 288 1125 260 1153 q 315 1058 315 1097 m 583 1058 q 556 992 583 1019 q 488 964 528 964 q 422 992 449 964 q 394 1058 394 1019 q 422 1125 394 1097 q 488 1153 449 1153 q 556 1125 528 1153 q 583 1058 583 1097 z "},"ä":{"ha":744,"x_min":29,"x_max":703,"o":"m 406 671 q 523 635 468 664 q 617 560 578 606 q 680 458 657 515 q 703 336 703 400 l 703 90 q 675 26 703 53 q 613 0 647 0 q 535 44 564 0 q 522 38 528 42 q 511 32 517 35 q 443 8 478 17 q 367 0 407 0 q 181 56 263 0 q 58 201 99 113 q 37 267 44 233 q 29 336 29 300 q 37 406 29 372 q 58 471 44 439 q 181 617 99 561 q 367 672 263 672 q 387 672 378 672 q 406 671 396 672 m 365 181 q 426 192 397 181 q 475 225 454 204 q 508 274 496 246 q 521 336 521 303 q 508 395 521 367 q 474 445 496 424 q 424 479 453 467 q 365 492 396 492 q 307 479 335 492 q 258 445 279 467 q 224 395 236 424 q 211 336 211 367 q 224 276 211 304 q 259 226 238 247 q 308 193 281 206 q 365 181 336 181 m 332 846 q 304 779 332 807 q 236 751 276 751 q 170 779 197 751 q 143 846 143 807 q 170 913 143 885 q 236 940 197 940 q 304 913 276 940 q 332 846 332 885 m 600 846 q 572 779 600 807 q 504 751 544 751 q 438 779 465 751 q 411 846 411 807 q 438 913 411 885 q 504 940 465 940 q 572 913 544 940 q 600 846 600 885 z "},"ˇ":{"ha":444,"x_min":-3,"x_max":421,"o":"m 403 854 l 240 717 q 212 706 231 708 q 178 717 193 703 l 15 854 q -1 886 0 867 q 10 921 -3 906 q 42 938 22 936 q 76 926 61 939 l 208 814 l 342 926 q 376 938 357 939 q 408 921 394 936 q 419 886 421 906 q 403 854 418 867 z "},"ž":{"ha":763,"x_min":40,"x_max":717,"o":"m 628 672 q 690 646 664 672 q 717 583 717 617 q 690 519 717 546 q 676 506 683 513 q 663 492 669 499 q 508 337 585 414 q 351 182 431 260 l 628 182 q 690 154 663 181 q 717 89 717 125 q 690 26 717 56 q 628 0 661 0 l 624 0 l 171 0 l 136 0 l 132 0 q 69 26 96 0 q 43 89 42 54 q 68 151 40 126 l 407 492 l 136 492 l 132 492 q 69 519 94 494 q 43 583 40 546 q 69 646 42 618 q 132 672 94 672 l 628 672 m 575 854 l 413 717 q 384 706 403 708 q 350 717 365 703 l 188 854 q 171 886 172 867 q 182 921 169 906 q 214 938 194 936 q 249 926 233 939 l 381 814 l 514 926 q 548 938 529 939 q 581 921 567 936 q 592 886 593 906 q 575 854 590 867 z "},"Ž":{"ha":750,"x_min":54,"x_max":688,"o":"m 594 188 q 661 160 635 188 q 688 94 688 132 q 661 27 688 54 q 594 0 635 0 l 150 0 q 101 15 122 1 q 69 49 81 28 q 58 94 58 69 q 72 144 58 119 l 74 146 l 422 700 l 147 700 q 82 726 110 700 q 54 793 54 753 q 82 860 54 832 q 147 888 110 888 l 592 888 q 640 872 618 886 q 673 837 661 858 q 685 790 685 815 q 669 739 685 764 l 322 188 l 594 188 l 594 188 m 568 1072 l 406 935 q 377 924 396 926 q 343 935 358 921 l 181 1072 q 164 1104 165 1085 q 175 1139 163 1124 q 207 1156 188 1154 q 242 1144 226 1157 l 374 1032 l 507 1144 q 541 1156 522 1157 q 574 1139 560 1154 q 585 1104 586 1124 q 568 1072 583 1085 z "},"Š":{"ha":701,"x_min":33,"x_max":663,"o":"m 301 700 q 245 676 268 700 q 221 615 222 651 q 245 560 222 583 q 301 538 268 538 l 396 538 q 495 517 447 538 q 581 459 543 496 q 640 373 618 422 q 663 268 663 324 q 642 165 663 214 q 585 81 621 117 q 500 23 549 44 q 396 0 451 1 l 149 0 q 81 27 107 0 q 54 94 54 54 q 81 160 54 132 q 149 188 108 188 l 396 188 q 453 211 428 188 q 478 268 478 235 q 453 326 478 303 q 397 350 429 349 l 301 350 q 200 372 249 351 q 115 428 151 393 q 56 513 78 464 q 33 618 33 561 q 54 718 33 669 q 112 804 75 767 q 197 865 149 842 q 301 888 246 888 l 549 888 q 613 860 586 888 q 642 793 639 833 q 615 726 642 753 q 549 700 589 700 l 301 700 l 301 700 m 544 1072 l 382 935 q 353 924 372 926 q 319 935 335 921 l 157 1072 q 140 1104 142 1085 q 151 1139 139 1124 q 183 1156 164 1154 q 218 1144 203 1157 l 350 1032 l 483 1144 q 517 1156 499 1157 q 550 1139 536 1154 q 561 1104 563 1124 q 544 1072 560 1085 z "},"š":{"ha":646,"x_min":33,"x_max":607,"o":"m 488 675 q 550 647 525 675 q 575 586 575 618 q 548 523 575 550 q 488 496 521 496 l 249 496 q 223 486 232 496 q 214 463 214 476 q 223 438 214 449 q 249 428 232 428 l 406 428 q 485 410 449 428 q 549 363 522 393 q 592 295 576 333 q 607 215 607 257 q 590 128 607 168 q 544 60 574 89 q 475 16 515 32 q 386 0 435 0 l 151 0 q 90 25 115 0 q 65 89 65 50 q 90 152 65 124 q 151 182 115 181 l 386 182 q 424 215 424 182 q 386 247 424 247 l 233 247 q 155 265 192 247 q 91 311 118 282 q 49 379 64 340 q 33 463 33 418 q 49 542 33 504 q 93 610 65 581 q 158 656 121 639 q 240 675 196 674 l 488 675 m 517 854 l 354 717 q 326 706 344 708 q 292 717 307 703 l 129 854 q 113 886 114 867 q 124 921 111 906 q 156 938 136 936 q 190 926 175 939 l 322 814 l 456 926 q 490 938 471 939 q 522 921 508 936 q 533 886 535 906 q 517 854 532 867 z "},"ñ":{"ha":751,"x_min":36,"x_max":710,"o":"m 374 676 q 501 652 440 676 q 608 584 563 628 q 682 481 654 540 q 710 351 710 421 l 710 94 q 684 32 710 58 q 621 4 658 6 q 556 28 583 4 q 529 90 529 53 l 529 340 q 517 401 529 372 q 484 450 506 429 q 434 483 463 471 q 372 496 406 496 q 314 484 342 496 q 265 453 286 472 q 232 406 244 433 q 219 347 219 378 l 219 94 q 192 31 219 58 q 128 4 164 4 q 64 29 92 4 q 36 90 36 54 l 36 340 q 63 471 38 410 q 134 578 89 532 q 240 650 179 624 q 374 676 301 676 m 618 876 q 639 841 636 863 q 629 801 642 819 q 569 747 604 767 q 496 720 533 726 q 421 722 458 714 q 353 753 383 729 q 274 776 315 781 q 208 739 232 771 q 174 717 196 721 q 135 728 153 714 q 113 763 117 742 q 124 803 110 785 q 184 858 149 838 q 258 883 219 878 q 335 879 296 889 q 408 844 375 869 q 479 827 439 821 q 543 865 519 833 q 578 886 557 883 q 618 876 600 889 z "},"Ý":{"ha":726,"x_min":22,"x_max":701,"o":"m 653 867 q 694 806 686 843 q 678 735 701 768 l 454 415 l 454 94 q 426 27 454 54 q 361 0 399 0 q 294 27 322 0 q 267 94 267 54 l 267 415 l 43 735 q 28 806 22 768 q 67 867 35 843 q 137 882 99 889 q 196 842 175 875 l 361 607 l 524 842 q 584 882 546 875 q 653 867 622 889 m 379 1089 q 419 1106 397 1103 q 462 1101 442 1108 q 496 1078 482 1094 q 514 1039 510 1061 q 498 977 518 1004 q 444 944 478 950 l 249 917 q 222 922 233 914 q 210 944 211 929 q 225 978 206 965 l 379 1089 z "},"Ñ":{"ha":711,"x_min":38,"x_max":668,"o":"m 353 888 q 472 863 417 888 q 571 796 528 839 q 640 696 614 753 q 668 572 665 639 l 668 94 q 641 27 668 54 q 575 0 614 0 q 508 27 535 0 q 481 94 481 54 l 481 572 q 470 622 481 599 q 442 663 460 646 q 402 690 425 681 q 353 700 379 700 q 303 690 326 700 q 262 663 279 681 q 234 622 244 646 q 224 572 224 599 l 224 94 q 197 27 224 54 q 132 0 169 0 q 65 27 92 0 q 38 94 38 54 l 38 572 q 63 693 39 636 q 131 792 88 750 q 231 860 174 835 q 353 888 288 885 m 597 1094 q 618 1059 615 1081 q 608 1019 621 1038 q 548 965 583 985 q 475 938 513 944 q 400 940 438 932 q 332 971 363 947 q 253 994 294 999 q 188 957 211 989 q 153 935 175 939 q 114 946 132 932 q 92 981 96 960 q 103 1021 89 1003 q 163 1076 128 1056 q 237 1101 199 1096 q 315 1097 275 1107 q 388 1063 354 1088 q 458 1045 418 1039 q 522 1083 499 1051 q 558 1104 536 1101 q 597 1094 579 1107 z "},"Ź":{"ha":750,"x_min":54,"x_max":688,"o":"m 594 188 q 661 160 635 188 q 688 94 688 132 q 661 27 688 54 q 594 0 635 0 l 150 0 q 101 15 122 1 q 69 49 81 28 q 58 94 58 69 q 72 144 58 119 l 74 146 l 422 700 l 147 700 q 82 726 110 700 q 54 793 54 753 q 82 860 54 832 q 147 888 110 888 l 592 888 q 640 872 618 886 q 673 837 661 858 q 685 790 685 815 q 669 739 685 764 l 322 188 l 594 188 l 594 188 m 390 1089 q 431 1106 408 1103 q 473 1101 453 1108 q 507 1078 493 1094 q 525 1039 521 1061 q 509 977 529 1004 q 456 944 489 950 l 260 917 q 233 922 244 914 q 221 944 222 929 q 236 978 217 965 l 390 1089 z "},"Ť":{"ha":669,"x_min":18,"x_max":649,"o":"m 554 888 q 622 860 594 888 q 649 793 649 832 q 622 726 649 753 q 554 700 594 700 l 426 700 l 426 94 q 400 27 426 54 q 333 0 374 0 q 267 27 293 0 q 240 94 240 54 l 240 700 l 111 700 q 45 726 72 700 q 18 793 18 753 q 45 860 18 832 q 111 888 72 888 l 554 888 l 554 888 m 528 1072 l 365 935 q 337 924 356 926 q 303 935 318 921 l 140 1072 q 124 1104 125 1085 q 135 1139 122 1124 q 167 1156 147 1154 q 201 1144 186 1157 l 333 1032 l 467 1144 q 501 1156 482 1157 q 533 1139 519 1154 q 544 1104 546 1124 q 528 1072 543 1085 z "},"Ś":{"ha":701,"x_min":33,"x_max":663,"o":"m 301 700 q 245 676 268 700 q 221 615 222 651 q 245 560 222 583 q 301 538 268 538 l 396 538 q 495 517 447 538 q 581 459 543 496 q 640 373 618 422 q 663 268 663 324 q 642 165 663 214 q 585 81 621 117 q 500 23 549 44 q 396 0 451 1 l 149 0 q 81 27 107 0 q 54 94 54 54 q 81 160 54 132 q 149 188 108 188 l 396 188 q 453 211 428 188 q 478 268 478 235 q 453 326 478 303 q 397 350 429 349 l 301 350 q 200 372 249 351 q 115 428 151 393 q 56 513 78 464 q 33 618 33 561 q 54 718 33 669 q 112 804 75 767 q 197 865 149 842 q 301 888 246 888 l 549 888 q 613 860 586 888 q 642 793 639 833 q 615 726 642 753 q 549 700 589 700 l 301 700 l 301 700 m 367 1089 q 407 1106 385 1103 q 449 1101 429 1108 q 483 1078 469 1094 q 501 1039 497 1061 q 485 977 506 1004 q 432 944 465 950 l 236 917 q 210 922 221 914 q 197 944 199 929 q 213 978 193 965 l 367 1089 z "},"Ř":{"ha":700,"x_min":38,"x_max":667,"o":"m 585 160 q 605 128 599 146 q 611 93 611 111 q 605 58 611 75 q 585 26 599 40 q 519 0 557 0 q 453 26 481 0 l 225 254 l 225 94 q 197 27 225 54 q 131 0 169 0 q 65 27 93 0 q 38 94 38 54 l 38 572 q 63 692 39 635 q 131 793 88 750 q 231 862 174 836 q 354 888 288 888 q 472 863 415 888 q 572 795 529 838 q 641 695 615 753 q 667 572 667 638 q 613 394 667 472 q 468 276 558 315 l 585 160 m 354 700 q 303 690 326 700 q 263 663 281 681 q 235 622 244 646 q 225 572 225 599 q 235 524 225 547 q 263 482 246 500 q 304 453 281 464 q 354 443 328 443 q 444 480 406 443 q 482 572 482 517 q 472 622 482 599 q 444 663 461 646 q 403 690 426 681 q 354 700 379 700 m 543 1072 l 381 935 q 352 924 371 926 q 318 935 333 921 l 156 1072 q 139 1104 140 1085 q 150 1139 138 1124 q 182 1156 163 1154 q 217 1144 201 1157 l 349 1032 l 482 1144 q 516 1156 497 1157 q 549 1139 535 1154 q 560 1104 561 1124 q 543 1072 558 1085 z "},"Ň":{"ha":711,"x_min":38,"x_max":668,"o":"m 353 888 q 472 863 417 888 q 571 796 528 839 q 640 696 614 753 q 668 572 665 639 l 668 94 q 641 27 668 54 q 575 0 614 0 q 508 27 535 0 q 481 94 481 54 l 481 572 q 470 622 481 599 q 442 663 460 646 q 402 690 425 681 q 353 700 379 700 q 303 690 326 700 q 262 663 279 681 q 234 622 244 646 q 224 572 224 599 l 224 94 q 197 27 224 54 q 132 0 169 0 q 65 27 92 0 q 38 94 38 54 l 38 572 q 63 693 39 636 q 131 792 88 750 q 231 860 174 835 q 353 888 288 885 m 549 1072 l 386 935 q 358 924 376 926 q 324 935 339 921 l 161 1072 q 144 1104 146 1085 q 156 1139 143 1124 q 188 1156 168 1154 q 222 1144 207 1157 l 354 1032 l 488 1144 q 522 1156 503 1157 q 554 1139 540 1154 q 565 1104 567 1124 q 549 1072 564 1085 z "},"Ń":{"ha":711,"x_min":38,"x_max":668,"o":"m 353 888 q 472 863 417 888 q 571 796 528 839 q 640 696 614 753 q 668 572 665 639 l 668 94 q 641 27 668 54 q 575 0 614 0 q 508 27 535 0 q 481 94 481 54 l 481 572 q 470 622 481 599 q 442 663 460 646 q 402 690 425 681 q 353 700 379 700 q 303 690 326 700 q 262 663 279 681 q 234 622 244 646 q 224 572 224 599 l 224 94 q 197 27 224 54 q 132 0 169 0 q 65 27 92 0 q 38 94 38 54 l 38 572 q 63 693 39 636 q 131 792 88 750 q 231 860 174 835 q 353 888 288 885 m 371 1089 q 411 1106 389 1103 q 453 1101 433 1108 q 488 1078 474 1094 q 506 1039 501 1061 q 490 977 510 1004 q 436 944 469 950 l 240 917 q 214 922 225 914 q 201 944 203 929 q 217 978 197 965 l 371 1089 z "},"Ď":{"ha":681,"x_min":43,"x_max":643,"o":"m 326 888 q 445 863 388 888 q 547 796 503 839 q 617 696 590 753 q 643 572 643 639 l 643 315 q 617 196 643 253 q 549 95 592 139 q 448 26 506 51 q 326 0 390 0 l 138 0 q 72 27 100 0 q 43 94 43 54 l 43 793 q 70 858 43 829 q 138 888 97 888 l 326 888 m 231 699 l 231 189 l 326 189 q 376 199 353 189 q 417 226 400 208 q 444 266 435 243 q 454 315 454 289 l 454 572 q 444 622 454 599 q 417 662 435 644 q 376 689 400 679 q 326 699 353 699 l 231 699 m 533 1072 l 371 935 q 342 924 361 926 q 308 935 324 921 l 146 1072 q 129 1104 131 1085 q 140 1139 128 1124 q 172 1156 153 1154 q 207 1144 192 1157 l 339 1032 l 472 1144 q 506 1156 488 1157 q 539 1139 525 1154 q 550 1104 551 1124 q 533 1072 549 1085 z "},"ň":{"ha":751,"x_min":36,"x_max":710,"o":"m 374 676 q 501 652 440 676 q 608 584 563 628 q 682 481 654 540 q 710 351 710 421 l 710 94 q 684 32 710 58 q 621 4 658 6 q 556 28 583 4 q 529 90 529 53 l 529 340 q 517 401 529 372 q 484 450 506 429 q 434 483 463 471 q 372 496 406 496 q 314 484 342 496 q 265 453 286 472 q 232 406 244 433 q 219 347 219 378 l 219 94 q 192 31 219 58 q 128 4 164 4 q 64 29 92 4 q 36 90 36 54 l 36 340 q 63 471 38 410 q 134 578 89 532 q 240 650 179 624 q 374 676 301 676 m 569 854 l 407 717 q 378 706 397 708 q 344 717 360 703 l 182 854 q 165 886 167 867 q 176 921 164 906 q 208 938 189 936 q 243 926 228 939 l 375 814 l 508 926 q 542 938 524 939 q 575 921 561 936 q 586 886 588 906 q 569 854 585 867 z "},"ń":{"ha":751,"x_min":36,"x_max":710,"o":"m 374 676 q 501 652 440 676 q 608 584 563 628 q 682 481 654 540 q 710 351 710 421 l 710 94 q 684 32 710 58 q 621 4 658 6 q 556 28 583 4 q 529 90 529 53 l 529 340 q 517 401 529 372 q 484 450 506 429 q 434 483 463 471 q 372 496 406 496 q 314 484 342 496 q 265 453 286 472 q 232 406 244 433 q 219 347 219 378 l 219 94 q 192 31 219 58 q 128 4 164 4 q 64 29 92 4 q 36 90 36 54 l 36 340 q 63 471 38 410 q 134 578 89 532 q 240 650 179 624 q 374 676 301 676 m 392 871 q 432 888 410 885 q 474 883 454 890 q 508 860 494 876 q 526 821 522 843 q 510 759 531 786 q 457 726 490 732 l 261 699 q 235 703 246 696 q 222 726 224 711 q 238 760 218 747 l 392 871 z "},"ř":{"ha":472,"x_min":24,"x_max":460,"o":"m 122 -1 q 60 23 85 -1 q 32 88 35 47 l 32 344 q 60 470 33 411 q 133 573 88 529 q 238 642 178 617 q 367 671 299 668 q 431 644 406 671 q 460 581 457 618 q 433 517 460 543 q 368 490 407 492 q 308 478 336 490 q 260 446 281 467 q 226 397 239 425 q 214 335 214 368 l 214 82 q 187 22 211 46 q 122 -1 163 -1 m 429 854 l 267 717 q 238 706 257 708 q 204 717 219 703 l 42 854 q 25 886 26 867 q 36 921 24 906 q 68 938 49 936 q 103 926 88 939 l 235 814 l 368 926 q 402 938 383 939 q 435 921 421 936 q 446 886 447 906 q 429 854 444 867 z "},"ŕ":{"ha":472,"x_min":32,"x_max":460,"o":"m 122 -1 q 60 23 85 -1 q 32 88 35 47 l 32 344 q 60 470 33 411 q 133 573 88 529 q 238 642 178 617 q 367 671 299 668 q 431 644 406 671 q 460 581 457 618 q 433 517 460 543 q 368 490 407 492 q 308 478 336 490 q 260 446 281 467 q 226 397 239 425 q 214 335 214 368 l 214 82 q 187 22 211 46 q 122 -1 163 -1 m 251 871 q 292 888 269 885 q 334 883 314 890 q 368 860 354 876 q 386 821 382 843 q 370 759 390 786 q 317 726 350 732 l 121 699 q 94 703 106 696 q 82 726 83 711 q 97 760 78 747 l 251 871 z "},"ć":{"ha":660,"x_min":28,"x_max":625,"o":"m 365 672 q 601 575 504 672 q 623 513 625 549 q 596 453 621 476 q 532 428 571 429 q 468 453 493 426 q 365 492 425 492 q 305 478 333 492 q 255 444 276 465 q 221 394 233 422 q 208 336 208 367 q 221 276 208 304 q 256 226 233 247 q 306 192 278 204 q 365 181 333 179 q 468 218 426 181 q 532 246 493 246 q 596 218 571 246 q 615 192 608 207 q 623 160 622 176 q 618 127 624 143 q 601 99 613 111 q 494 25 553 50 q 365 0 436 0 q 235 27 296 0 q 128 100 174 54 q 55 207 82 146 q 28 336 28 268 q 55 464 28 403 q 128 571 82 525 q 236 644 175 617 q 365 672 297 672 m 346 871 q 386 888 364 885 q 428 883 408 890 q 463 860 449 876 q 481 821 476 843 q 465 759 485 786 q 411 726 444 732 l 215 699 q 189 703 200 696 q 176 726 178 711 q 192 760 172 747 l 346 871 z "},"č":{"ha":660,"x_min":28,"x_max":625,"o":"m 365 672 q 601 575 504 672 q 623 513 625 549 q 596 453 621 476 q 532 428 571 429 q 468 453 493 426 q 365 492 425 492 q 305 478 333 492 q 255 444 276 465 q 221 394 233 422 q 208 336 208 367 q 221 276 208 304 q 256 226 233 247 q 306 192 278 204 q 365 181 333 179 q 468 218 426 181 q 532 246 493 246 q 596 218 571 246 q 615 192 608 207 q 623 160 622 176 q 618 127 624 143 q 601 99 613 111 q 494 25 553 50 q 365 0 436 0 q 235 27 296 0 q 128 100 174 54 q 55 207 82 146 q 28 336 28 268 q 55 464 28 403 q 128 571 82 525 q 236 644 175 617 q 365 672 297 672 m 524 854 l 361 717 q 333 706 351 708 q 299 717 314 703 l 136 854 q 119 886 121 867 q 131 921 118 906 q 163 938 143 936 q 197 926 182 939 l 329 814 l 463 926 q 497 938 478 939 q 529 921 515 936 q 540 886 542 906 q 524 854 539 867 z "},"ě":{"ha":729,"x_min":29,"x_max":703,"o":"m 365 672 q 493 644 432 672 q 601 570 554 617 q 675 463 647 524 q 703 336 703 403 q 676 272 703 300 q 608 246 649 244 l 239 246 q 365 181 285 181 q 403 185 388 181 q 430 194 418 189 q 453 204 442 200 q 481 208 465 208 q 531 192 510 207 q 563 153 553 176 q 570 104 574 131 q 546 56 567 78 q 463 13 508 25 q 365 0 417 1 q 238 24 299 -3 q 130 98 176 51 q 56 207 83 144 q 29 336 29 269 q 56 463 29 401 q 129 570 83 524 q 236 644 175 617 q 365 672 297 672 m 492 428 q 436 474 468 457 q 365 492 404 492 q 294 474 325 492 q 239 428 263 457 l 492 428 m 558 854 l 396 717 q 367 706 386 708 q 333 717 349 703 l 171 854 q 154 886 156 867 q 165 921 153 906 q 197 938 178 936 q 232 926 217 939 l 364 814 l 497 926 q 531 938 513 939 q 564 921 550 936 q 575 886 576 906 q 558 854 574 867 z "},"Ć":{"ha":669,"x_min":33,"x_max":636,"o":"m 543 303 q 608 276 581 303 q 636 208 636 249 q 631 182 636 194 q 619 156 626 169 q 506 42 579 85 q 347 0 432 0 q 229 24 286 0 q 128 91 172 49 q 59 191 85 133 q 33 315 33 249 l 33 571 q 58 690 33 633 q 125 791 82 747 q 225 860 168 835 q 347 886 282 886 q 504 844 431 886 q 621 726 578 801 q 631 703 626 717 q 636 676 636 689 q 608 610 636 638 q 542 582 581 582 q 492 598 511 582 q 457 638 472 614 q 412 682 440 665 q 347 699 383 699 q 298 689 321 699 q 258 662 275 679 q 230 621 240 644 q 219 571 219 597 l 219 315 q 230 265 219 289 q 258 224 240 242 q 298 197 275 207 q 347 188 321 188 q 411 204 383 188 q 457 249 439 221 q 489 288 472 272 q 543 303 506 303 m 350 1089 q 390 1106 368 1103 q 433 1101 413 1108 q 467 1078 453 1094 q 485 1039 481 1061 q 469 977 489 1004 q 415 944 449 950 l 219 917 q 193 922 204 914 q 181 944 182 929 q 196 978 176 965 l 350 1089 z "},"Č":{"ha":669,"x_min":33,"x_max":636,"o":"m 543 303 q 608 276 581 303 q 636 208 636 249 q 631 182 636 194 q 619 156 626 169 q 506 42 579 85 q 347 0 432 0 q 229 24 286 0 q 128 91 172 49 q 59 191 85 133 q 33 315 33 249 l 33 571 q 58 690 33 633 q 125 791 82 747 q 225 860 168 835 q 347 886 282 886 q 504 844 431 886 q 621 726 578 801 q 631 703 626 717 q 636 676 636 689 q 608 610 636 638 q 542 582 581 582 q 492 598 511 582 q 457 638 472 614 q 412 682 440 665 q 347 699 383 699 q 298 689 321 699 q 258 662 275 679 q 230 621 240 644 q 219 571 219 597 l 219 315 q 230 265 219 289 q 258 224 240 242 q 298 197 275 207 q 347 188 321 188 q 411 204 383 188 q 457 249 439 221 q 489 288 472 272 q 543 303 506 303 m 528 1072 l 365 935 q 337 924 356 926 q 303 935 318 921 l 140 1072 q 124 1104 125 1085 q 135 1139 122 1124 q 167 1156 147 1154 q 201 1144 186 1157 l 333 1032 l 467 1144 q 501 1156 482 1157 q 533 1139 519 1154 q 544 1104 546 1124 q 528 1072 543 1085 z "},"Ĺ":{"ha":590,"x_min":43,"x_max":579,"o":"m 488 194 q 552 167 525 194 q 579 101 579 140 q 552 34 579 61 q 488 7 525 7 l 139 7 q 72 34 99 7 q 43 101 46 61 l 43 800 q 71 866 43 839 q 139 893 99 893 q 203 866 175 893 q 232 800 232 839 l 232 194 l 488 194 l 488 194 m 311 1089 q 351 1106 329 1103 q 394 1101 374 1108 q 428 1078 414 1094 q 446 1039 442 1061 q 430 977 450 1004 q 376 944 410 950 l 181 917 q 154 922 165 914 q 142 944 143 929 q 157 978 138 965 l 311 1089 z "},"Ŕ":{"ha":700,"x_min":38,"x_max":667,"o":"m 585 160 q 605 128 599 146 q 611 93 611 111 q 605 58 611 75 q 585 26 599 40 q 519 0 557 0 q 453 26 481 0 l 225 254 l 225 94 q 197 27 225 54 q 131 0 169 0 q 65 27 93 0 q 38 94 38 54 l 38 572 q 63 692 39 635 q 131 793 88 750 q 231 862 174 836 q 354 888 288 888 q 472 863 415 888 q 572 795 529 838 q 641 695 615 753 q 667 572 667 638 q 613 394 667 472 q 468 276 558 315 l 585 160 m 354 700 q 303 690 326 700 q 263 663 281 681 q 235 622 244 646 q 225 572 225 599 q 235 524 225 547 q 263 482 246 500 q 304 453 281 464 q 354 443 328 443 q 444 480 406 443 q 482 572 482 517 q 472 622 482 599 q 444 663 461 646 q 403 690 426 681 q 354 700 379 700 m 365 1089 q 406 1106 383 1103 q 448 1101 428 1108 q 482 1078 468 1094 q 500 1039 496 1061 q 484 977 504 1004 q 431 944 464 950 l 235 917 q 208 922 219 914 q 196 944 197 929 q 211 978 192 965 l 365 1089 z "},"ś":{"ha":646,"x_min":33,"x_max":607,"o":"m 488 675 q 550 647 525 675 q 575 586 575 618 q 548 523 575 550 q 488 496 521 496 l 249 496 q 223 486 232 496 q 214 463 214 476 q 223 438 214 449 q 249 428 232 428 l 406 428 q 485 410 449 428 q 549 363 522 393 q 592 295 576 333 q 607 215 607 257 q 590 128 607 168 q 544 60 574 89 q 475 16 515 32 q 386 0 435 0 l 151 0 q 90 25 115 0 q 65 89 65 50 q 90 152 65 124 q 151 182 115 181 l 386 182 q 424 215 424 182 q 386 247 424 247 l 233 247 q 155 265 192 247 q 91 311 118 282 q 49 379 64 340 q 33 463 33 418 q 49 542 33 504 q 93 610 65 581 q 158 656 121 639 q 240 675 196 674 l 488 675 m 339 871 q 379 888 357 885 q 422 883 401 890 q 456 860 442 876 q 474 821 469 843 q 458 759 478 786 q 404 726 438 732 l 208 699 q 182 703 193 696 q 169 726 171 711 q 185 760 165 747 l 339 871 z "},"ź":{"ha":763,"x_min":40,"x_max":717,"o":"m 628 672 q 690 646 664 672 q 717 583 717 617 q 690 519 717 546 q 676 506 683 513 q 663 492 669 499 q 508 337 585 414 q 351 182 431 260 l 628 182 q 690 154 663 181 q 717 89 717 125 q 690 26 717 56 q 628 0 661 0 l 624 0 l 171 0 l 136 0 l 132 0 q 69 26 96 0 q 43 89 42 54 q 68 151 40 126 l 407 492 l 136 492 l 132 492 q 69 519 94 494 q 43 583 40 546 q 69 646 42 618 q 132 672 94 672 l 628 672 m 397 871 q 438 888 415 885 q 480 883 460 890 q 514 860 500 876 q 532 821 528 843 q 516 759 536 786 q 463 726 496 732 l 267 699 q 240 703 251 696 q 228 726 229 711 q 243 760 224 747 l 397 871 z "},"ť":{"ha":903,"x_min":38,"x_max":856,"o":"m 132 888 q 197 860 171 888 q 226 793 224 833 l 226 688 l 493 688 q 558 660 533 688 q 583 594 583 632 q 556 530 583 558 q 493 501 528 501 l 226 501 l 226 343 q 238 283 226 311 q 271 232 250 254 q 320 197 292 210 q 382 185 349 185 q 444 194 418 185 q 489 224 469 204 q 553 249 518 249 q 619 222 589 250 q 640 194 633 210 q 648 160 647 178 q 643 126 649 143 q 625 97 638 110 q 518 25 576 50 q 393 0 460 0 q 257 24 321 0 q 144 94 193 49 q 67 202 96 139 q 38 343 39 265 l 38 800 q 66 863 38 838 q 132 888 94 888 m 743 553 q 707 528 729 528 q 679 540 690 528 q 668 568 668 551 l 668 794 q 695 860 668 833 q 763 888 722 888 q 810 874 789 888 q 842 840 831 861 q 855 794 854 819 q 842 746 856 769 l 743 553 z "},"Ě":{"ha":644,"x_min":43,"x_max":599,"o":"m 506 188 q 572 160 544 188 q 599 94 599 132 q 572 27 599 54 q 506 0 544 0 l 136 0 q 72 27 100 0 q 43 94 43 54 l 43 793 q 69 858 43 829 q 136 888 96 888 l 506 888 q 572 860 544 888 q 599 793 599 832 q 572 726 599 753 q 506 700 544 700 l 228 700 l 228 565 l 413 565 q 478 538 450 565 q 506 471 506 510 q 478 405 506 432 q 413 378 450 378 l 228 378 l 228 188 l 506 188 l 506 188 m 515 1072 l 353 935 q 324 924 343 926 q 290 935 306 921 l 128 1072 q 111 1104 113 1085 q 122 1139 110 1124 q 154 1156 135 1154 q 189 1144 174 1157 l 321 1032 l 454 1144 q 488 1156 469 1157 q 521 1139 507 1154 q 532 1104 533 1124 q 515 1072 531 1085 z "},"~":{"ha":575,"x_min":-3,"x_max":529,"o":"m 506 486 q 526 451 524 472 q 517 411 529 429 q 456 356 492 376 q 383 330 421 336 q 308 331 346 324 q 240 363 271 339 q 161 385 203 390 q 96 349 119 381 q 62 327 83 331 q 22 338 40 324 q 1 373 4 351 q 11 413 -3 394 q 72 467 36 447 q 145 493 107 488 q 223 489 183 499 q 296 454 263 479 q 367 437 326 431 q 431 475 407 443 q 466 496 444 493 q 506 486 488 499 z "},"¥":{"ha":740,"x_min":31,"x_max":710,"o":"m 632 185 q 606 120 632 147 q 542 93 579 93 l 463 93 q 433 26 461 53 q 369 0 406 0 q 303 26 331 0 q 275 93 275 53 l 199 93 q 133 120 160 93 q 107 185 107 147 q 133 249 107 222 q 199 276 160 276 l 275 276 l 275 338 l 199 338 q 133 365 160 338 q 107 429 107 392 q 132 492 107 465 q 193 521 157 518 l 51 735 q 37 806 31 768 q 75 867 43 843 q 145 882 107 889 q 204 842 183 875 l 369 607 l 532 842 q 592 882 554 875 q 661 867 631 889 q 702 806 694 843 q 686 735 710 768 l 544 521 q 606 492 581 519 q 632 429 632 465 q 606 365 632 392 q 542 338 579 338 l 463 338 l 463 276 l 542 276 q 606 249 579 276 q 632 185 632 222 z "},"€":{"ha":744,"x_min":24,"x_max":714,"o":"m 621 303 q 686 276 658 303 q 714 208 714 249 q 709 182 714 194 q 697 156 704 169 q 583 42 657 85 q 425 0 510 0 q 307 24 364 0 q 206 91 250 49 q 136 190 163 133 q 122 231 128 210 l 115 231 q 50 258 76 231 q 24 322 24 285 q 50 386 24 360 q 111 414 75 413 l 111 456 q 50 482 75 457 q 24 547 24 510 q 50 612 24 585 q 115 639 76 639 l 118 639 q 135 690 125 665 q 203 791 160 747 q 303 860 246 835 q 425 886 360 886 q 582 844 508 886 q 699 726 656 801 q 709 703 704 717 q 714 676 714 689 q 686 610 714 638 q 619 582 658 582 q 569 598 589 582 q 535 638 550 614 q 490 682 518 665 q 425 699 461 699 q 376 689 399 699 q 335 661 353 679 q 317 639 325 651 l 389 639 q 453 612 426 639 q 479 547 479 585 q 453 483 479 510 q 389 456 426 456 l 297 456 l 297 414 l 389 414 q 453 387 426 414 q 479 322 479 360 q 453 258 479 285 q 389 231 426 231 l 329 231 l 335 224 q 376 197 353 207 q 425 188 399 188 q 489 204 461 188 q 535 249 517 221 q 567 288 550 272 q 621 303 583 303 z "},"#":{"ha":817,"x_min":22,"x_max":796,"o":"m 642 474 l 626 421 q 692 393 665 421 q 719 326 719 365 q 692 260 719 288 q 626 232 665 232 l 567 232 l 514 67 q 468 11 503 29 q 396 6 433 -7 q 340 51 358 17 q 335 122 322 85 l 369 232 l 314 232 l 261 67 q 216 11 250 29 q 144 6 182 -7 q 89 51 107 17 q 83 122 71 85 l 118 232 l 117 232 q 49 260 76 232 q 22 326 22 288 q 49 393 22 365 q 117 421 76 421 l 176 421 l 193 474 q 126 501 153 474 q 99 568 99 528 q 126 633 99 606 q 193 660 153 660 l 251 660 l 303 824 q 349 878 314 861 q 422 885 385 896 q 476 839 458 874 q 483 768 493 804 l 447 660 l 504 660 l 554 824 q 602 879 568 861 q 672 885 636 897 q 729 840 711 875 q 736 768 747 806 l 701 660 q 768 633 740 660 q 796 568 796 606 q 768 501 796 528 q 701 474 740 474 l 642 474 m 446 474 l 389 474 l 375 421 l 429 421 l 446 474 z "},"£":{"ha":494,"x_min":18,"x_max":456,"o":"m 363 186 q 428 158 401 186 q 456 93 456 131 q 428 27 456 54 q 363 0 401 0 l 201 0 q 134 27 161 0 q 107 94 107 54 l 107 333 q 44 358 68 333 q 18 425 21 383 q 42 488 18 461 q 107 519 67 514 l 107 638 q 126 731 107 686 q 177 811 144 776 q 254 867 210 846 q 349 888 299 888 q 419 865 390 888 q 450 796 447 842 q 424 733 450 758 q 357 704 397 707 q 311 683 332 704 q 293 638 293 664 l 293 519 q 354 490 329 517 q 381 425 379 463 q 356 361 381 386 q 293 333 332 336 l 293 186 l 363 186 l 363 186 z "},"Ÿ":{"ha":726,"x_min":22,"x_max":701,"o":"m 653 867 q 694 806 686 843 q 678 735 701 768 l 454 415 l 454 94 q 426 27 454 54 q 361 0 399 0 q 294 27 322 0 q 267 94 267 54 l 267 415 l 43 735 q 28 806 22 768 q 67 867 35 843 q 137 882 99 889 q 196 842 175 875 l 361 607 l 524 842 q 584 882 546 875 q 653 867 622 889 m 324 1064 q 296 997 324 1025 q 228 969 268 969 q 162 997 189 969 q 135 1064 135 1025 q 162 1131 135 1103 q 228 1158 189 1158 q 296 1131 268 1158 q 324 1064 324 1103 m 592 1064 q 564 997 592 1025 q 496 969 536 969 q 430 997 457 969 q 403 1064 403 1025 q 430 1131 403 1103 q 496 1158 457 1158 q 564 1131 536 1158 q 592 1064 592 1103 z "},"@":{"ha":1006,"x_min":29,"x_max":981,"o":"m 506 886 q 690 849 604 886 q 841 747 776 811 q 943 595 906 682 q 981 410 981 508 q 978 353 981 382 q 967 296 976 324 q 896 200 947 238 q 778 160 844 163 q 650 207 706 160 q 506 160 586 160 q 410 179 456 160 q 331 233 365 199 q 276 312 297 267 q 256 410 256 357 q 275 507 256 461 q 328 587 294 553 q 408 640 363 621 q 506 660 454 660 q 625 629 571 660 q 713 549 679 599 q 743 483 732 518 q 754 410 754 449 q 752 385 754 397 q 750 363 750 374 q 776 336 750 336 q 792 342 785 336 q 801 357 799 349 q 806 410 806 382 q 765 558 806 493 q 658 668 726 626 q 506 710 589 710 q 389 686 443 710 q 294 622 335 663 q 229 526 253 581 q 206 410 206 472 q 229 293 206 347 q 294 198 253 239 q 389 133 335 157 q 506 110 443 110 q 594 124 554 110 q 631 131 613 131 q 692 105 667 131 q 718 43 718 79 q 701 -8 718 15 q 657 -42 685 -31 q 506 -67 583 -67 q 320 -29 407 -67 q 169 73 233 8 q 67 224 104 138 q 29 410 29 311 q 67 595 29 508 q 169 747 104 682 q 320 849 233 811 q 506 886 407 886 m 506 483 q 453 462 474 483 q 432 410 432 440 q 453 358 432 379 q 506 336 474 336 q 558 358 536 336 q 579 410 579 379 q 558 462 579 440 q 506 483 536 483 z "},"™":{"ha":892,"x_min":51,"x_max":840,"o":"m 567 400 l 532 400 l 532 371 q 546 385 536 378 q 567 400 556 393 m 572 454 l 676 454 l 676 604 q 675 644 676 629 q 669 667 674 660 q 658 677 665 675 q 642 679 651 679 q 613 667 626 679 q 591 638 600 656 q 577 601 582 621 q 572 563 572 581 l 572 454 m 403 454 l 504 454 l 504 604 q 503 644 504 629 q 497 667 501 660 q 486 677 493 675 q 469 679 479 679 q 440 667 453 679 q 419 638 428 656 q 407 601 411 621 q 403 563 403 581 l 403 454 m 786 454 l 786 493 l 751 493 l 751 454 l 786 454 m 156 547 l 156 454 l 224 454 l 156 547 m 189 219 l 189 254 l 271 371 l 189 371 l 189 400 l 156 400 l 156 178 l 217 178 l 217 144 l 99 144 l 99 426 l 51 426 l 51 844 l 126 844 l 126 618 l 231 740 l 319 740 l 203 604 l 313 454 l 328 454 l 328 749 l 403 749 l 403 693 q 415 712 408 701 q 431 732 421 722 q 456 749 442 742 q 490 756 469 756 q 539 739 517 756 q 572 686 561 722 q 599 731 578 707 q 663 756 621 756 q 725 728 699 756 q 751 644 751 701 l 751 529 l 840 529 l 840 82 l 725 82 l 725 117 l 786 117 l 786 400 l 710 400 q 765 308 765 386 q 744 240 765 268 q 683 213 724 213 q 627 240 647 213 q 607 308 607 268 q 619 369 607 346 q 663 400 631 393 l 593 400 l 593 364 q 532 303 532 364 l 532 219 l 490 219 l 490 400 l 429 400 q 460 374 450 393 q 469 329 469 356 l 469 324 l 367 324 q 370 300 367 313 q 381 276 374 288 q 402 256 389 264 q 436 249 415 249 q 455 251 446 249 q 469 254 464 254 l 469 228 q 443 220 454 221 q 417 219 432 219 q 351 245 375 219 q 328 324 328 271 q 338 374 328 354 q 375 400 349 393 l 319 400 l 319 371 l 236 254 l 319 254 l 319 219 l 189 219 z "},"®":{"ha":892,"x_min":51,"x_max":840,"o":"m 567 400 l 532 400 l 532 371 q 546 385 536 378 q 567 400 556 393 m 572 454 l 676 454 l 676 604 q 675 644 676 629 q 669 667 674 660 q 658 677 665 675 q 642 679 651 679 q 613 667 626 679 q 591 638 600 656 q 577 601 582 621 q 572 563 572 581 l 572 454 m 403 454 l 504 454 l 504 604 q 503 644 504 629 q 497 667 501 660 q 486 677 493 675 q 469 679 479 679 q 440 667 453 679 q 419 638 428 656 q 407 601 411 621 q 403 563 403 581 l 403 454 m 786 454 l 786 493 l 751 493 l 751 454 l 786 454 m 156 547 l 156 454 l 224 454 l 156 547 m 189 219 l 189 254 l 271 371 l 189 371 l 189 400 l 156 400 l 156 178 l 217 178 l 217 144 l 99 144 l 99 426 l 51 426 l 51 844 l 126 844 l 126 618 l 231 740 l 319 740 l 203 604 l 313 454 l 328 454 l 328 749 l 403 749 l 403 693 q 415 712 408 701 q 431 732 421 722 q 456 749 442 742 q 490 756 469 756 q 539 739 517 756 q 572 686 561 722 q 599 731 578 707 q 663 756 621 756 q 725 728 699 756 q 751 644 751 701 l 751 529 l 840 529 l 840 82 l 725 82 l 725 117 l 786 117 l 786 400 l 710 400 q 765 308 765 386 q 744 240 765 268 q 683 213 724 213 q 627 240 647 213 q 607 308 607 268 q 619 369 607 346 q 663 400 631 393 l 593 400 l 593 364 q 532 303 532 364 l 532 219 l 490 219 l 490 400 l 429 400 q 460 374 450 393 q 469 329 469 356 l 469 324 l 367 324 q 370 300 367 313 q 381 276 374 288 q 402 256 389 264 q 436 249 415 249 q 455 251 446 249 q 469 254 464 254 l 469 228 q 443 220 454 221 q 417 219 432 219 q 351 245 375 219 q 328 324 328 271 q 338 374 328 354 q 375 400 349 393 l 319 400 l 319 371 l 236 254 l 319 254 l 319 219 l 189 219 z "},"–":{"ha":592,"x_min":0,"x_max":540,"o":"m 540 418 q 513 351 540 379 q 447 324 486 324 l 93 324 q 26 351 53 324 q 0 418 0 379 q 26 485 0 458 q 93 513 53 513 l 447 513 q 513 485 486 513 q 540 418 540 458 z "},"—":{"ha":708,"x_min":0,"x_max":651,"o":"m 651 418 q 624 351 651 379 q 558 324 597 324 l 93 324 q 26 351 53 324 q 0 418 0 379 q 26 485 0 458 q 93 513 53 513 l 558 513 q 624 485 597 513 q 651 418 651 458 z "},"_":{"ha":729,"x_min":39,"x_max":690,"o":"m 690 96 q 663 29 690 57 q 597 1 636 1 l 132 1 q 65 29 92 1 q 39 96 39 57 q 65 163 39 136 q 132 190 92 190 l 597 190 q 663 163 636 190 q 690 96 690 136 z "},"¢":{"ha":633,"x_min":17,"x_max":614,"o":"m 342 889 q 411 860 382 889 q 440 790 440 831 l 440 661 q 590 575 525 640 q 612 513 614 549 q 585 453 610 476 q 521 428 560 429 q 457 453 482 426 q 440 465 449 460 l 440 204 q 457 218 449 211 q 521 246 482 246 q 585 218 560 246 q 604 192 597 207 q 612 160 611 176 q 607 127 613 143 q 590 99 601 111 q 483 25 542 50 q 440 10 463 15 l 440 -87 q 411 -157 440 -128 q 342 -186 382 -186 q 273 -157 301 -186 q 244 -87 244 -128 l 244 18 q 224 26 233 22 q 117 100 163 54 q 44 207 71 146 q 17 336 17 268 q 44 464 17 403 q 117 571 71 525 q 225 644 164 617 l 244 653 l 244 790 q 273 860 244 831 q 342 889 301 889 m 210 394 q 197 336 197 367 q 210 276 197 304 q 244 225 222 247 l 244 444 l 243 443 q 210 394 222 422 z "},"¦":{"ha":238,"x_min":25,"x_max":211,"o":"m 119 886 q 184 858 157 886 q 211 793 211 831 l 211 -122 q 184 -188 211 -161 q 119 -215 157 -215 q 52 -188 79 -215 q 25 -122 25 -161 l 25 793 q 52 858 25 831 q 119 886 79 886 z "},"­":{"ha":592,"x_min":0,"x_max":540,"o":"m 540 418 q 513 351 540 379 q 447 324 486 324 l 93 324 q 26 351 53 324 q 0 418 0 379 q 26 485 0 458 q 93 513 53 513 l 447 513 q 513 485 486 513 q 540 418 540 458 z "},"œ":{"ha":1222,"x_min":29,"x_max":1196,"o":"m 858 672 q 986 644 925 672 q 1094 570 1047 617 q 1168 463 1140 524 q 1196 336 1196 403 q 1169 272 1196 300 q 1101 246 1142 244 l 732 246 q 858 181 778 181 q 896 185 881 181 q 923 194 911 189 q 947 204 935 200 q 974 208 958 208 q 1024 192 1003 207 q 1056 153 1046 176 q 1063 104 1067 131 q 1039 56 1060 78 q 956 13 1001 25 q 858 0 910 1 q 731 24 792 -3 q 622 97 669 51 l 618 101 q 603 86 611 93 q 497 14 558 40 q 365 -12 436 -12 q 235 13 296 -12 q 128 83 174 38 q 56 189 82 128 q 29 322 29 250 q 55 452 29 392 q 126 558 81 513 q 233 630 171 603 q 365 660 294 657 q 494 633 433 660 q 601 561 556 607 l 607 554 q 622 569 614 563 q 729 644 668 617 q 858 672 790 672 m 365 478 q 306 466 333 478 q 256 433 278 454 q 222 384 235 413 q 210 322 210 356 q 222 262 210 290 q 256 212 235 233 q 306 178 278 190 q 365 165 333 165 q 426 178 397 165 q 475 212 454 190 q 508 262 496 233 q 521 322 521 290 q 475 431 518 386 q 365 478 432 475 m 985 428 q 929 474 961 457 q 858 492 897 492 q 787 474 818 492 q 732 428 756 457 l 985 428 z "},"æ":{"ha":1236,"x_min":29,"x_max":1194,"o":"m 857 672 q 985 644 924 672 q 1092 570 1046 617 q 1167 463 1139 524 q 1194 336 1194 403 q 1167 272 1194 300 q 1100 246 1140 244 l 731 246 q 857 181 776 181 q 894 185 879 181 q 922 194 910 189 q 945 204 933 200 q 972 208 957 208 q 1023 192 1001 207 q 1055 153 1044 176 q 1062 104 1065 131 q 1038 56 1058 78 q 954 13 1000 25 q 857 0 908 1 q 729 24 790 -3 q 690 44 708 33 q 675 26 683 35 q 613 0 647 0 q 535 44 564 0 q 522 38 528 42 q 511 32 517 35 q 443 8 478 17 q 367 0 407 0 q 181 56 263 0 q 58 201 99 113 q 37 267 44 233 q 29 336 29 300 q 37 406 29 372 q 58 471 44 439 q 181 617 99 561 q 367 672 263 672 l 386 672 q 406 671 396 672 q 522 635 468 664 q 614 564 575 606 q 621 569 618 567 q 728 644 667 617 q 857 672 789 672 m 365 181 q 426 192 397 181 q 475 225 454 204 q 508 274 496 246 q 521 336 521 303 l 521 346 q 508 394 518 371 q 474 445 496 424 q 424 479 453 467 q 365 492 396 492 q 307 479 335 492 q 258 445 279 467 q 224 395 236 424 q 211 336 211 367 q 224 276 211 304 q 259 226 238 247 q 308 193 281 206 q 365 181 336 181 m 983 428 q 928 474 960 457 q 857 492 896 492 q 785 474 817 492 q 731 428 754 457 l 983 428 z "},"Ð":{"ha":676,"x_min":-54,"x_max":643,"o":"m 326 888 q 445 863 388 888 q 547 796 503 839 q 617 696 590 753 q 643 572 643 639 l 643 315 q 617 196 643 253 q 549 95 592 139 q 448 26 506 51 q 326 0 390 0 l 138 0 q 72 27 100 0 q 43 94 43 54 l 43 324 l 39 324 q -28 351 -1 324 q -54 418 -54 379 q -28 485 -54 458 q 39 513 -1 513 l 43 513 l 43 793 q 70 858 43 829 q 138 888 97 888 l 326 888 m 333 418 q 306 351 333 379 q 240 324 279 324 l 231 324 l 231 189 l 326 189 q 376 199 353 189 q 417 226 400 208 q 444 266 435 243 q 454 315 454 289 l 454 572 q 444 622 454 599 q 417 662 435 644 q 376 689 400 679 q 326 699 353 699 l 231 699 l 231 513 l 240 513 q 306 485 279 513 q 333 418 333 458 z "},"Ø":{"ha":697,"x_min":33,"x_max":664,"o":"m 488 883 q 542 838 524 872 q 550 811 547 825 q 567 796 558 804 q 635 696 610 753 q 664 572 661 639 l 664 317 q 637 197 661 254 q 571 95 613 139 q 473 26 529 51 q 350 0 417 0 q 275 8 311 0 q 210 4 243 -6 q 154 49 172 15 q 143 79 146 64 q 131 92 136 85 q 62 192 88 135 q 33 317 36 250 l 33 572 q 60 692 35 635 q 127 793 85 750 q 227 862 169 836 q 350 888 285 888 q 419 879 386 888 q 488 883 453 894 m 399 197 q 440 225 422 207 q 467 266 457 243 q 478 317 478 289 l 478 543 l 365 188 q 399 197 383 190 m 299 690 q 258 663 276 681 q 231 622 240 646 q 221 572 221 599 l 221 354 l 331 699 q 299 690 314 696 z "},"Œ":{"ha":1068,"x_min":33,"x_max":1032,"o":"m 939 188 q 1005 160 978 188 q 1032 94 1032 132 q 1005 27 1032 54 q 939 0 978 0 l 569 0 q 504 26 533 0 l 494 36 q 472 25 483 31 q 350 0 417 0 q 230 24 286 0 q 131 92 174 49 q 62 192 88 135 q 33 317 36 250 l 33 572 q 60 692 35 635 q 127 793 85 750 q 227 862 169 836 q 350 888 285 888 q 469 863 414 888 q 496 850 483 857 l 503 858 q 569 888 529 888 l 939 888 q 1005 860 978 888 q 1032 793 1032 832 q 1005 726 1032 753 q 939 700 978 700 l 661 700 l 661 604 q 664 572 663 589 l 664 565 l 846 565 q 911 538 883 565 q 939 471 939 510 q 911 405 939 432 q 846 378 883 378 l 664 378 l 664 317 q 661 285 663 300 l 661 188 l 939 188 m 350 188 q 399 197 376 188 q 440 225 422 207 q 467 265 457 243 q 476 294 474 279 l 476 593 q 467 622 474 608 q 440 663 457 646 q 399 690 422 681 q 350 700 376 700 q 299 690 322 700 q 258 663 276 681 q 231 622 240 646 q 221 572 221 599 l 221 317 q 258 225 221 263 q 350 188 296 188 z "},"Æ":{"ha":999,"x_min":39,"x_max":967,"o":"m 874 188 q 940 160 913 188 q 967 94 967 132 q 940 27 967 54 q 874 0 913 0 l 504 0 l 503 0 q 435 27 463 0 q 408 93 408 54 l 408 256 l 226 256 l 226 93 q 199 27 226 54 q 131 0 171 0 q 65 27 92 0 q 39 93 39 54 l 39 613 q 61 719 39 669 q 121 807 83 769 q 209 866 158 844 q 317 888 260 888 q 424 865 374 888 q 439 860 432 863 q 504 888 464 888 l 874 888 q 940 860 913 888 q 967 793 967 832 q 940 726 967 753 q 874 700 913 700 l 596 700 l 596 565 l 781 565 q 846 538 818 565 q 874 471 874 510 q 846 405 874 432 q 781 378 818 378 l 596 378 l 596 188 l 874 188 m 408 608 q 381 673 408 646 q 317 700 354 700 q 253 673 279 700 q 226 608 226 646 l 226 443 l 408 443 l 408 608 z "},"©":{"ha":892,"x_min":51,"x_max":840,"o":"m 567 400 l 532 400 l 532 371 q 546 385 536 378 q 567 400 556 393 m 572 454 l 676 454 l 676 604 q 675 644 676 629 q 669 667 674 660 q 658 677 665 675 q 642 679 651 679 q 613 667 626 679 q 591 638 600 656 q 577 601 582 621 q 572 563 572 581 l 572 454 m 403 454 l 504 454 l 504 604 q 503 644 504 629 q 497 667 501 660 q 486 677 493 675 q 469 679 479 679 q 440 667 453 679 q 419 638 428 656 q 407 601 411 621 q 403 563 403 581 l 403 454 m 786 454 l 786 493 l 751 493 l 751 454 l 786 454 m 156 547 l 156 454 l 224 454 l 156 547 m 189 219 l 189 254 l 271 371 l 189 371 l 189 400 l 156 400 l 156 178 l 217 178 l 217 144 l 99 144 l 99 426 l 51 426 l 51 844 l 126 844 l 126 618 l 231 740 l 319 740 l 203 604 l 313 454 l 328 454 l 328 749 l 403 749 l 403 693 q 415 712 408 701 q 431 732 421 722 q 456 749 442 742 q 490 756 469 756 q 539 739 517 756 q 572 686 561 722 q 599 731 578 707 q 663 756 621 756 q 725 728 699 756 q 751 644 751 701 l 751 529 l 840 529 l 840 82 l 725 82 l 725 117 l 786 117 l 786 400 l 710 400 q 765 308 765 386 q 744 240 765 268 q 683 213 724 213 q 627 240 647 213 q 607 308 607 268 q 619 369 607 346 q 663 400 631 393 l 593 400 l 593 364 q 532 303 532 364 l 532 219 l 490 219 l 490 400 l 429 400 q 460 374 450 393 q 469 329 469 356 l 469 324 l 367 324 q 370 300 367 313 q 381 276 374 288 q 402 256 389 264 q 436 249 415 249 q 455 251 446 249 q 469 254 464 254 l 469 228 q 443 220 454 221 q 417 219 432 219 q 351 245 375 219 q 328 324 328 271 q 338 374 328 354 q 375 400 349 393 l 319 400 l 319 371 l 236 254 l 319 254 l 319 219 l 189 219 z "},"÷":{"ha":561,"x_min":0,"x_max":540,"o":"m 540 418 q 513 485 540 458 q 447 513 486 513 l 93 513 q 26 485 53 513 q 0 418 0 458 q 26 351 0 379 q 93 324 53 324 l 447 324 q 513 351 486 324 q 540 418 540 379 m 357 176 q 329 110 357 138 q 261 82 301 82 q 195 110 222 82 q 168 176 168 138 q 195 243 168 215 q 261 271 222 271 q 329 243 301 271 q 357 176 357 215 m 357 661 q 329 594 357 622 q 261 567 301 567 q 195 594 222 567 q 168 661 168 622 q 195 728 168 700 q 261 756 222 756 q 329 728 301 756 q 357 661 357 700 z "},"µ":{"ha":735,"x_min":17,"x_max":692,"o":"m 601 674 q 666 647 640 674 q 692 585 692 621 l 692 347 q 665 209 692 272 q 591 100 638 146 q 483 28 544 54 q 354 1 422 1 q 272 10 313 1 q 199 39 231 19 l 199 -121 q 171 -186 199 -161 q 108 -211 143 -211 q 44 -186 72 -211 q 17 -125 17 -161 l 17 589 q 44 649 17 625 q 108 674 72 674 q 173 647 147 674 q 199 585 199 621 l 199 331 q 212 272 199 299 q 247 225 225 244 q 297 194 268 206 q 354 183 325 183 q 416 196 388 183 q 465 229 444 208 q 498 278 486 250 q 510 338 510 306 l 510 589 q 538 650 510 626 q 601 674 567 674 z "},"˙":{"ha":249,"x_min":29,"x_max":218,"o":"m 218 835 q 190 768 218 796 q 122 740 163 740 q 56 768 83 740 q 29 835 29 796 q 56 901 29 874 q 122 929 83 929 q 190 901 163 929 q 218 835 218 874 z "},"ż":{"ha":757,"x_min":40,"x_max":717,"o":"m 628 672 q 690 646 664 672 q 717 583 717 617 q 690 519 717 546 q 676 506 683 513 q 663 492 669 499 q 508 337 585 414 q 351 182 431 260 l 628 182 q 690 154 663 181 q 717 89 717 125 q 690 26 717 56 q 628 0 661 0 l 624 0 l 171 0 l 136 0 l 132 0 q 69 26 96 0 q 43 89 42 54 q 68 151 40 126 l 407 492 l 136 492 l 132 492 q 69 519 94 494 q 43 583 40 546 q 69 646 42 618 q 132 672 94 672 l 628 672 m 472 835 q 444 768 472 796 q 376 740 417 740 q 310 768 338 740 q 283 835 283 796 q 310 901 283 874 q 376 929 338 929 q 444 901 417 929 q 472 835 472 874 z "},"ď":{"ha":960,"x_min":14,"x_max":913,"o":"m 597 885 q 660 859 633 885 q 688 793 688 833 l 688 336 q 660 207 688 268 q 587 100 633 146 q 479 27 540 54 q 351 0 418 0 q 224 26 285 0 q 116 99 163 53 q 42 206 69 144 q 14 336 14 267 q 41 465 14 404 q 115 572 68 526 q 222 645 161 618 q 351 672 283 672 q 506 635 435 672 l 506 794 q 513 829 506 813 q 533 858 521 846 q 563 878 546 871 q 597 885 579 885 m 351 492 q 291 479 319 492 q 241 445 263 467 q 207 395 219 424 q 194 336 194 367 q 207 276 194 304 q 241 226 219 247 q 291 193 263 206 q 351 181 319 181 q 410 193 382 181 q 459 227 438 206 q 493 276 481 249 q 506 336 506 304 q 493 398 506 369 q 459 447 481 426 q 410 480 438 468 q 351 492 382 492 m 800 553 q 764 528 786 528 q 736 540 747 528 q 725 568 725 551 l 725 794 q 752 860 725 833 q 819 888 779 888 q 867 874 846 888 q 899 840 888 861 q 912 794 911 819 q 899 746 913 769 l 800 553 z "},"Ż":{"ha":744,"x_min":54,"x_max":688,"o":"m 594 188 q 661 160 635 188 q 688 94 688 132 q 661 27 688 54 q 594 0 635 0 l 150 0 q 101 15 122 1 q 69 49 81 28 q 58 94 58 69 q 72 144 58 119 l 74 146 l 422 700 l 147 700 q 82 726 110 700 q 54 793 54 753 q 82 860 54 832 q 147 888 110 888 l 592 888 q 640 872 618 886 q 673 837 661 858 q 685 790 685 815 q 669 739 685 764 l 322 188 l 594 188 l 594 188 m 467 1053 q 439 986 467 1014 q 371 958 411 958 q 305 986 332 958 q 278 1053 278 1014 q 305 1119 278 1092 q 371 1147 332 1147 q 439 1119 411 1147 q 467 1053 467 1092 z "},"×":{"ha":751,"x_min":67,"x_max":686,"o":"m 533 618 q 595 644 560 644 q 658 617 631 643 q 683 554 683 592 q 658 490 683 517 l 506 336 l 658 182 q 685 119 683 157 q 658 53 686 81 q 595 28 633 28 q 529 57 557 28 l 376 207 l 224 53 q 161 28 199 31 q 96 53 124 25 q 69 115 71 78 q 93 179 67 151 l 250 336 l 93 493 q 69 554 67 519 q 96 617 72 589 q 161 644 126 647 q 224 617 196 642 l 376 464 l 533 618 z "},"•":{"ha":326,"x_min":-3,"x_max":286,"o":"m 140 193 q 85 204 111 193 q 39 235 58 215 q 8 281 19 254 q -3 336 -3 307 q 10 393 -3 367 q 42 439 22 419 q 87 469 61 458 q 140 481 113 481 q 201 467 174 481 q 247 433 228 454 q 276 387 265 413 q 286 336 286 361 q 274 281 286 307 q 243 235 263 254 q 197 204 224 215 q 140 193 169 193 z "},"·":{"ha":210,"x_min":0,"x_max":189,"o":"m 189 338 q 161 271 189 299 q 93 243 133 243 q 27 271 54 243 q 0 338 0 299 q 27 404 0 376 q 93 432 54 432 q 161 404 133 432 q 189 338 189 376 z "},"¤":{"ha":892,"x_min":51,"x_max":840,"o":"m 567 400 l 532 400 l 532 371 q 546 385 536 378 q 567 400 556 393 m 572 454 l 676 454 l 676 604 q 675 644 676 629 q 669 667 674 660 q 658 677 665 675 q 642 679 651 679 q 613 667 626 679 q 591 638 600 656 q 577 601 582 621 q 572 563 572 581 l 572 454 m 403 454 l 504 454 l 504 604 q 503 644 504 629 q 497 667 501 660 q 486 677 493 675 q 469 679 479 679 q 440 667 453 679 q 419 638 428 656 q 407 601 411 621 q 403 563 403 581 l 403 454 m 786 454 l 786 493 l 751 493 l 751 454 l 786 454 m 156 547 l 156 454 l 224 454 l 156 547 m 189 219 l 189 254 l 271 371 l 189 371 l 189 400 l 156 400 l 156 178 l 217 178 l 217 144 l 99 144 l 99 426 l 51 426 l 51 844 l 126 844 l 126 618 l 231 740 l 319 740 l 203 604 l 313 454 l 328 454 l 328 749 l 403 749 l 403 693 q 415 712 408 701 q 431 732 421 722 q 456 749 442 742 q 490 756 469 756 q 539 739 517 756 q 572 686 561 722 q 599 731 578 707 q 663 756 621 756 q 725 728 699 756 q 751 644 751 701 l 751 529 l 840 529 l 840 82 l 725 82 l 725 117 l 786 117 l 786 400 l 710 400 q 765 308 765 386 q 744 240 765 268 q 683 213 724 213 q 627 240 647 213 q 607 308 607 268 q 619 369 607 346 q 663 400 631 393 l 593 400 l 593 364 q 532 303 532 364 l 532 219 l 490 219 l 490 400 l 429 400 q 460 374 450 393 q 469 329 469 356 l 469 324 l 367 324 q 370 300 367 313 q 381 276 374 288 q 402 256 389 264 q 436 249 415 249 q 455 251 446 249 q 469 254 464 254 l 469 228 q 443 220 454 221 q 417 219 432 219 q 351 245 375 219 q 328 324 328 271 q 338 374 328 354 q 375 400 349 393 l 319 400 l 319 371 l 236 254 l 319 254 l 319 219 l 189 219 z "}," ":{"ha":313,"x_min":0,"x_max":0,"o":""}}}
